<svg xmlns="http://www.w3.org/2000/svg" width="560" height="527"><path fill="#4c3c26" d="M439 0c4.05-.77 7.94-.69 12 0 2.47 1.76 3.36 3.35 5 6l3 2c2.99 5.53 4.51 11.51 5.51 17.68.55 2.6 1.5 4.86 2.49 7.32q.795 2.925 1.5 5.88c.78 3.21 1.58 6.38 2.5 9.56 2.67 9.49 4.48 18.7 5 28.56l6 1 1 4c.55.05 1.09.09 1.66.14 3.48 1.28 5.46 3.89 7.84 6.61.47.53.95 1.05 1.43 1.59 1.38 1.54 2.73 3.1 4.07 4.66.7.82 1.41 1.63 2.13 2.48 3.36 4.53 5.59 9.69 8.02 14.77.75 1.55 1.55 3.09 2.34 4.62 3.12 6.22 4.34 11.95 5.05 18.87.57 4.03 1.64 7.62 3.46 11.26 1.2-.16 2.4-.32 3.64-.49 6.36-.7 12.71-.69 19.11-.7l3.65-.03c.58-.01.58-.01 3.52-.01.53 0 .53 0 3.18-.01 2.9.24 2.9.24 7.9 2.24v22h-2c-.11.57-.22 1.14-.33 1.72-1.63 7.93-3.63 13.65-9.67 19.28-1.16 1.32-2.3 2.66-3.44 4-2.96 3.42-6.04 6.17-9.56 9-.7.78-1.4 1.57-2.12 2.38-7.09 6.46-15.96 10.36-24.88 13.62-.84.35-1.68.7-2.55 1.07-3.11 1.18-6.15 1.54-9.45 1.93 1.57 3.47 3.16 6.29 5.75 9.06 2.25 2.94 2.25 2.94 2.19 5.5-.65 1.68-1.31 3.34-2 5C501 245 501 245 501 249c1.65 1.02 3.32 2.02 5 3 8.23 11.56 10.99 25.03 10 39-1.02 5.61-2.27 10.97-5 16-2.87.19-2.87.19-6 0l-2-3c-1.66-.69-3.33-1.35-5-2-2.02-1.3-4.03-2.62-6-4-.17.89-.34 1.78-.52 2.7-.24 1.17-.48 2.34-.73 3.55-.23 1.16-.46 2.32-.7 3.52-1.13 3.49-2.15 5.03-5.05 7.23h-3c-1.33 2.37-2.12 4.47-2.81 7.12-2.82 10.21-9.14 20.95-17.19 27.88h-2c-.85 2.71-1.32 4.23-1 7 1.58 2.36 3.34 4.28 5.34 6.3C466 365 466 365 467 367c.62.24 1.23.49 1.87.74 3.11 1.84 3.78 4.16 5.19 7.45.51 1.16 1.02 2.33 1.55 3.53.23.54.23.54 1.39 3.28.35.76.69 1.52 1.05 2.31 1.26 2.77 1.95 4.61 1.95 7.69h2c.96 4.04 1.17 7.85 1.19 12 .01 1.2.03 2.39.04 3.62-.22 3.29-.71 5.48-2.23 8.38l-2 1c-.29.76-.58 1.53-.88 2.31-1.25 3.01-2.64 4.6-5.12 6.69h-2l-1 3c-9.51 3.35-18.75 2.84-28-1v-2c-.62-.14-1.24-.29-1.88-.44C438 425 438 425 436 424c.52 4.98 2.17 9.09 4.16 13.63.84 2.37.84 2.37.84 6.37h2l.92 2.75c3.29 9.58 7.27 17.92 13.08 26.25.43.7.85 1.4 1.29 2.12 2.25 2.47 3.62 2.46 6.9 2.63.9.06 1.8.11 2.73.17.69.03 1.37.05 2.08.08l1 3c.76.29 1.53.58 2.31.88 3.35 1.4 4.68 3.14 6.69 6.12v2h2c.73 1.98 1.39 3.98 2 6l-1 2c-.04 2.33-.04 4.67 0 7l3.56-.06c3.89 0 7.61.36 11.44 1.06l1 1c1.75.11 3.5.18 5.25.25 3.83.29 6.21.51 8.94 3.31.3.4.3.4 1.81 2.44l-2 6c-1.07.13-2.14.27-3.25.4l-4.19.54c-.7.08-1.41.17-2.14.26-5.31.69-5.31.69-6.42 1.8-9.83 1.35-19.86 1.3-29.77 1.55-1.99.05-3.99.11-5.99.17l-3.56.09C455 524 455 524 454 525c-1.78.09-3.56.11-5.35.1-.54 0-.54 0-3.27-.01l-3.44-.03c-1.14 0-2.28-.01-3.46-.01-2.83-.01-5.65-.03-8.48-.05v2H230v-2h-34v-2c-.63.01-1.26.01-1.9.02-13.74.09-27.39-.11-41.1-1.02v-2l-3 2c-3.19.12-3.19.12-6 0v-2c-.7.01-1.41.02-2.13.04-23.4.21-23.4.21-31.87-5.04v2h-3v-2c-.6.01-1.21.02-1.83.04-.4 0-.4 0-2.42.02-.39.01-.39.01-2.39.04-2.3-.1-4.19-.34-6.36-1.1l-1-2-3-1c-.88-1.88-.88-1.88-1-4 2.17-3.19 5.49-4.62 9-6 2.81-.35 5.59-.56 8.41-.69 2.59-.31 2.59-.31 4.48-1.27 3.02-1.49 5.97-1.69 9.3-2.1 6.71-.84 6.71-.84 7.81-1.94-.09-1.69-.2-3.38-.31-5.06-.11-11.01 5.22-21.23 10.24-30.8 1.26-2.51 2.19-5.11 3.13-7.76 1.57-3.98 3.48-7.81 5.33-11.67 1.77-3.75 3.24-7.44 4.49-11.4 2.28-6.55 6.25-12.4 11.12-17.31 3.1-1.21 3.1-1.21 6-2l3-2h4l1-3 3-2c.69-2.13.69-2.13 1-4-1.05.62-2.1 1.24-3.19 1.88-6.7 3.38-14.38 4.12-21.81 4.12-1.38.03-2.76.07-4.13.11-8.8.17-17.3-.03-25.99-1.49-.39-.06-.39-.06-2.32-.38-5.29-.97-5.29-.97-7.56-3.24-1.52-.6-3.07-1.14-4.62-1.62-.41-.14-.41-.14-2.48-.79-.63-.2-1.25-.39-1.9-.59v-2c-.45.03-.45.03-2.75.19-3.74-.22-4.4-.94-7.25-3.19-2.63-1.57-5.29-3.08-7.95-4.6-.68-.46-1.35-.92-2.05-1.4v-2c-.37-.11-.37-.11-2.25-.69-3.33-1.59-4.5-3.4-6.75-6.31-1.11-.98-2.23-1.94-3.38-2.88-3.17-2.63-5.77-5.49-8.36-8.7C64 363 64 363 62 362c-.73-1.7-1.46-3.4-2.16-5.12C59 355 59 355 57.12 352.19c-9.86-14.8-14.02-32.36-16.12-49.81-2.96-24.33-2.96-24.33-9.61-30.99-.52-.38-1.04-.75-1.58-1.14-.46-.37-.46-.37-2.81-2.25v-2c-14.22-3.76-14.22-3.76-21.13-1.54C4 265 4 265 0 265v-17l2-1c.29-.73.57-1.45.87-2.2C6.64 235.46 14.8 227.81 22 221c.54-.58 1.08-1.15 1.63-1.75C25 218 25 218 27 218l.79-1.82c3.51-6.3 11.66-9.66 17.79-12.88C48 202 48 202 51 200c1.2-.33 2.39-.66 3.62-1 1.12-.33 2.23-.66 3.38-1l1-2c1.93-.53 3.86-1.05 5.82-1.49 1.94-.45 3.84-1.04 5.74-1.63 3.61-.92 6.73-1.03 10.44-.88v-2c3.08-.17 6.17-.33 9.25-.5.44-.02.44-.02 2.64-.14.85-.05 1.69-.09 2.56-.14.39-.02.39-.02 2.35-.13 4.63-.19 9.21.05 13.82.35l2.07.12c5.08.32 5.08.32 7.31 1.44 3.24.53 6.49.96 9.74 1.4 3.01.56 5.46 1.38 8.26 2.6.93.29 1.86.58 2.81.88 3.92 1.38 7.52 3.2 11.19 5.12v2c.76.29 1.53.58 2.31.88C158 205 158 205 161 207v2c.44.11.44.11 2.69.69 5.72 2.27 8.25 6.21 11.31 11.31 1.65 1.69 3.31 3.35 5 5 2.7 3.07 4.02 5.1 5 9l3 1c1.18 1.68 1.18 1.68 2.31 3.88.43.8.85 1.61 1.29 2.44.46.88.92 1.77 1.4 2.68 1.06 1.92 2.12 3.83 3.19 5.75 4.87 8.8 4.87 8.8 4.69 13.19.16 3.99 1.91 5.81 4.12 9.06.25 2.88.25 2.88 0 5h2l1 6h4c.27-1.07.54-2.14.81-3.25 1.19-3.75 1.19-3.75 2.75-5.63 2.26-3.33 2.41-7.15 2.44-11.12l-1-1c-.75-7.68 2.51-14.01 7-20h1c.01-.86.03-1.72.04-2.61.37-9.2 2.17-15.96 5.96-24.39h2c.26-.57.52-1.15.79-1.74 1.3-2.43 2.78-4.31 4.59-6.38.58-.69 1.17-1.37 1.77-2.08 1.87-1.82 3.53-2.65 5.85-3.8l2-3c2.43-1.13 2.43-1.13 5.31-2.12.47-.17.47-.17 2.87-1.01 2.82-.87 2.82-.87 5.4-1.39 2.42-.48 4.55-1.23 6.86-2.1 3.87-1.35 6.53-1.52 10.56-.38v-2c.78-.06 1.56-.12 2.37-.18 1.01-.09 2.02-.17 3.07-.26 1.01-.08 2.02-.16 3.06-.24C290 189 290 189 291 188c3.61-.38 7.25-.47 10.88-.62 1.01-.06 2.03-.11 3.08-.16.98-.05 1.96-.09 2.97-.13.45-.02.45-.02 2.73-.13C313 187 313 187 316 188l2-1c2.04-.07 4.08-.08 6.12-.06 1.1.01 2.2.02 3.33.02.42.01.42.01 2.55.04-.36-1.94-.36-1.94-1-4-1.66-.69-3.33-1.35-5-2-2.75-2.56-2.75-2.56-5-5l-1-1c-.38-2.75-.38-2.75 0-6 2.17-2.57 3.98-4.49 7-6l2 1c.11-.36.11-.36.69-2.19 1.56-3.34 3.61-5.33 6.31-7.81-1.55-5.06-3.16-9.5-6-14-2.25-4.78-3.84-9.57-5.31-14.65-.55-1.86-1.17-3.71-1.81-5.54-.88-2.81-.88-2.81-1.32-6.25-.51-3.24-1.46-5.62-2.77-8.6-1.36-3.39-2.16-6.9-2.98-10.46-.17-.72-.35-1.44-.53-2.18-1.07-4.55-1.31-8.63-1.28-13.32-.62-2.84-.62-2.84-1.44-5.5-2.24-7.36-2.71-14.44-2.69-22.08 0-.45 0-.45-.01-2.72 0-1.88.01-3.76.01-5.64.01-2.88 0-5.77-.01-8.65 0-1.83.01-3.66.01-5.49 0-.87-.01-1.73-.01-2.62.03-6.07.03-6.07 1.14-8.3h2c.1-.6.21-1.2.31-1.81.82-2.59 1.56-3.52 3.69-5.19 10.32-1.62 21.05.93 30 6v2c.76-.06 1.53-.12 2.31-.19 3.27.23 3.54.87 5.69 3.19 1.98 1.05 3.97 2.05 6 3v2c.8.12 1.61.25 2.44.38.84.2 1.69.41 2.56.62l1 2c2.51 1.3 5.07 2.44 7.65 3.59 2.64 1.59 3.13 2.66 4.35 5.41 2.63 1.25 2.63 1.25 5 2v2c.91.23 1.81.45 2.75.69 3.75 1.51 4.86 3.13 7.25 6.31 2.25 1.31 2.25 1.31 4 2v2l3 1 2 2.06c2 1.94 2 1.94 5 1.94.29-.68.58-1.36.89-2.06 1.32-3.09 2.65-6.17 3.99-9.25.46-1.07.92-2.15 1.39-3.25.44-1.03.89-2.06 1.35-3.12.41-.94.81-1.89 1.23-2.87C416 36 416 36 418 33c.17-.87.33-1.73.5-2.62.17-.79.33-1.57.5-2.38l2-1c1.02-1.65 1.96-3.35 2.88-5.06.53-1 1.06-1.99 1.61-3.01 1.24-2.41 2.39-4.84 3.51-7.31 1.94-3.98 4.5-5.96 8-8.62zM209 286v5h2c-.16-.82-.16-.82-1-5zm223 129 2 5 1-2-1-3z"/><path fill="#483a25" d="M439 0c4.05-.77 7.94-.69 12 0 2.47 1.76 3.36 3.35 5 6l3 2c2.99 5.53 4.51 11.51 5.51 17.68.55 2.6 1.5 4.86 2.49 7.32q.795 2.925 1.5 5.88c.79 3.28 1.6 6.42 2.69 9.62.76 3.28.84 5.72.75 9.06-.19 16.62-.19 16.62 4.62 22.27 1.88 1.36 1.88 1.36 4 2.65 15.42 9.61 23.57 24.89 29.44 41.52.32.86.64 1.71.97 2.59 1.32 4.38 1.99 8.76 2.65 13.29.14.87.27 1.75.41 2.66.33 2.15.65 4.31.97 6.46 1.23-.02 2.45-.03 3.72-.05 4.54-.05 9.09-.09 13.63-.11 1.97-.02 3.94-.04 5.91-.07 2.82-.03 5.65-.05 8.48-.06.44-.01.44-.01 2.67-.05h2.49c.36 0 .36 0 2.18-.02 2.49.47 3.37 1.4 4.92 3.36 1.61 7.65-1.25 14.97-4 22-.3.81-.6 1.61-.91 2.45-3.09 7.67-8.1 14.95-15.09 19.55h-2l-.73 2.25c-3.61 7.8-13.29 12.1-20.61 15.82-2.8.98-3.94 1.01-6.66-.07.76-.43 1.53-.87 2.31-1.31 2.69-1.69 2.69-1.69 4.05-3.11 2.68-2.58 5.95-4.16 9.17-5.98 2.52-1.63 4.43-3.41 6.47-5.6-.95.47-1.9.95-2.88 1.44-4.69 1.96-9.06 2.34-14.12 2.56-.35.02-.35.02-2.15.11-18.49.91-18.49.91-26.85-5.11v-4c2.49 1.2 4.68 2.45 7 4 14.39 4.26 32.81 1.35 45.8-5.54 4.01-2.66 7.05-6.16 9.2-10.46h2c.12-.93.25-1.86.38-2.81C550 175 550 175 552 172c-.85.21-1.69.41-2.56.62-5.05.56-8.75-.4-12.88-3.37-1.56-2.25-1.56-2.25-2.37-5.06 1.3-5.11 5.43-7.52 9.81-10.19h2v-2c-.42 0-.42 0-2.55.02-3.15.01-6.3.03-9.46.03l-4.07.03c-1.97.01-3.93.01-5.89.02-1.18 0-2.36.01-3.57.01-7.47-.24-11.15-1.05-16.46-6.11l-1 3c-.58-.16-1.15-.33-1.75-.5-2.25-.5-2.25-.5-6.25-.5.21.7.41 1.4.62 2.12.46 3.48-.34 5.65-1.62 8.88h-4c-1.06-1.81-1.06-1.81-2-4l1-3-2-1v2h-2c.63 2.93 1.59 5.36 3 8l-6-1c.19.95.37 1.9.56 2.88C483 166 483 166 482 168c-2.06.62-2.06.62-4 1l2 3 4-1v2h-2v2l6-1v2c-4.34 1.14-8.39.93-12.81.56-.7-.05-1.39-.1-2.1-.16-1.7-.12-3.39-.26-5.09-.4l4-2-3-4-4 1v-2c-.85.16-1.69.33-2.56.5-4.7-.68-6-2.93-8.83-6.55C452 161 452 161 449 159c-.36-3.05-.36-3.05-.31-6.75 0-1.21.01-2.42.01-3.67.29-3.51 1.04-6.31 2.3-9.58h4l2 3 3-1 2 9 4 1c1-1 1-1 1.24-3.27-.28-3.25-1.21-4.81-3.05-7.48-.52-.78-1.05-1.56-1.58-2.36-2.04-2.39-3.74-2.78-6.81-3.16-6.63-.27-10.71.98-15.8 5.27-4.9 5.03-5.14 9.5-5.06 16.31 0 .54 0 .54.02 3.24.02.81.03 1.62.04 2.45-3-1-3-1-4.19-3.06-1.87-6.76-1.04-11.71 1.99-17.9 3.02-5.13 7.47-8.63 13.01-10.73 6.71-.96 10.72-.76 16.3 3.14 5.76 4.73 8.66 9.48 10.89 16.55l2-6h2v-3c.63-2.01 1.29-4.01 2-6h-2v-2h3v2c3 0 3 0 4.69-1.5.43-.5.86-.99 1.31-1.5.74.66 1.49 1.32 2.25 2 2.75 2 2.75 2 6.75 2 .34-1.62.67-3.25 1-4.88.19-.9.37-1.8.56-2.74.44-2.38.44-2.38.44-4.38l4 2v9c.12-1.09.25-2.19.38-3.31C502 128 502 128 504 125c.59-5.81-.19-9.21-3.12-14.24C500 109 500 109 500 106h-2c-1.11-1.61-1.11-1.61-2.31-3.75-2.17-3.62-4.32-5.68-7.69-8.25q-1.545-1.89-3.06-3.81c-6.24-7.28-15.14-11.25-24.08-14.27-.3-.15-.3-.15-1.86-.92l-1-3h5c-3.41-4.17-6.77-7.64-11-11v-2h-2v-2l-2.88-.88C444 55 444 55 442 53c-1.52-.6-3.07-1.14-4.62-1.62-.82-.27-1.64-.53-2.48-.79-.63-.2-1.25-.39-1.9-.59v-2c-2.64.16-2.64.16-16 1l-2 6c-.35.83-.7 1.65-1.06 2.5-1.06 2.82-1.48 5.53-1.94 8.5l2.55-.06c3.18-.07 6.37-.12 9.55-.16 1.37-.02 2.74-.05 4.1-.08 9.68-.24 17.73.87 26.8 4.3v2c-1.38-.14-2.75-.29-4.12-.44l-2.33-.24c-1.76-.22-3.52-.5-5.26-.83-3.53-.53-6.87-.6-10.44-.59-.66 0-1.31.01-1.99.01q-3.12 0-6.24.03c-1.41 0-2.83.01-4.25.01-3.46.01-6.91.03-10.37.05v3c-3.5-.56-4.81-1.58-6.94-4.38-1.67-2.19-2.95-3.55-5.33-4.98-3.54-2.12-6.41-4.77-9.48-7.52-5.08-4.46-10.05-8.3-16.25-11.12l-1 3h-2c.41 1.07.82 2.15 1.25 3.25.23.6.46 1.21.7 1.83C372 55 372 55 373.91 56.89c2.34 2.36 3.67 4.67 5.21 7.61l1.51 2.84c.45.88.91 1.76 1.37 2.66.39.71.78 1.42 1.18 2.16C384 74 384 74 384 77h2l3 7c-3 0-3 0-5-1l1 4c-1.81-.56-1.81-.56-4-2-.73-1.64-1.46-3.28-2.11-4.95-8.59-19.68-28.14-35.37-46.08-46.24-.32-.19-.32-.19-1.92-1.17-2.85-1.67-4.54-2.64-7.89-2.64-4.69 15.84-1.35 37.95 3.28 53.5.7 2.45 1.23 4.88 1.72 7.38.76 3.56 2.06 6.01 4 9.12.46 1.37.9 2.74 1.31 4.12 1.5 4.85 3.91 8.91 6.58 13.2 1.38 3.33 1.03 5.24.11 8.68-1 1-1 1-3.25 1.31-3.57-.4-5.14-1.92-7.75-4.31l1.06 1.91c2.92 5.5 4.59 9.86 4.94 16.09h2l3 6c1.59-2.38 2.87-4.63 4.12-7.19.36-.71.71-1.43 1.08-2.17.26-.54.53-1.08.8-1.64h3c-1.34 5.13-3.08 9.82-5.31 14.62-.14.33-.14.33-.86 1.95-1.99 4.31-4.27 7.2-7.83 10.43l-1.95 1.98c-.57.59-1.15 1.17-1.74 1.77-.58.59-1.16 1.19-1.76 1.8C328 170 328 170 326 171c1.47 3.87 3.5 4.97 7 7v2l4.75 1.44c.88.26 1.76.53 2.67.81 2.19.63 4.37 1.22 6.58 1.75v2c-.93.29-1.86.58-2.81.88C341 188 341 188 338 190c.29 1.88.29 1.88 1 4 2.67 1.56 5.17 2.79 8 4 .47.21.47.21 2.85 1.26 4.74 2.04 9.43 3.9 14.4 5.3 4.62 1.32 8.59 3.02 12.75 5.44l1 3c-8.7-1.13-16.72-2.6-24.77-6.2-2.23-.8-2.23-.8-6.23-.8-1.64 3.27-1.4 6.73-.31 10.19.1.6.2 1.19.31 1.81-1.38 1.56-1.38 1.56-3 3l-1 3c.99-.05 1.98-.09 3-.14 4.3 0 8 1.07 12.06 2.39.34.1.34.1 2.07.62 4.51 1.43 7.95 3.43 11.87 6.13 1.09.21 2.19.41 3.31.62 4.89 1.83 6.91 4.85 10.23 8.77 3.91 4.15 8.53 6.82 13.46 9.61l3.31 1.93c3.96 2.26 8.03 4.3 12.13 6.32.73.36 1.46.73 2.21 1.1 1.79.89 3.57 1.77 5.35 2.65v2l3 1h-2v2l-5-1c.14.47.14.47.88 2.83 4.92 16.94 5.05 32.21-2.88 48.17-1.83 3.15-3.75 6.13-6 9 1.47 3.79 3.37 5.17 6.81 7.25.98.6 1.96 1.2 2.97 1.81 1.06.64 2.12 1.28 3.22 1.94 1.15.71 2.3 1.41 3.44 2.12 3.18 1.97 6.37 3.93 9.56 5.88.43.3.43.3 2.63 1.8 2.37 1.2 2.37 1.2 4.49 1.11 5.02-2.43 7.87-8.4 9.76-13.41.37-1.15.74-2.31 1.12-3.5h3c-1.24 7.02-2.77 11.03-8 16-1.31 2.31-1.31 2.31-2 4l3-1v2h-3v2c1.63 1.08 3.31 2.09 5 3.06 13 8.03 21.83 22.38 26 36.94.79 7.12-.52 14.05-2 21h-2l-1 3h-2c.01-.44.01-.44.07-2.67.02-1.16.04-2.32.05-3.52.02-.57.02-.57.08-3.48-.2-3.28-.69-5.43-2.2-8.33l-2-1c.33 1.15.66 2.31 1 3.5 1.76 7.19 1.56 12.92-2 19.5-4.49 2.99-8.74 2.46-14 2-5.72-1.23-9.2-3.61-13-8l3-1v-4l2.69.06c2.93-.05 5.46-.39 8.31-1.06v-7h-2v4l-7-1v-4l-4-2 .06-2.25C440 397 440 397 439.44 395c-.59-2.68-.23-4.37.56-7 1.81-1.88 1.81-1.88 4-3.56 3.74-2.9 3.74-2.9 4.9-5.33.22-4.69-2.91-8.74-5.9-12.11-2.99-1.36-5.74-1.84-9-2l2 4 6-1 2 6-3 1v-3h-3c-.75 2.62-.75 2.62-1 6 1.94 3.38 1.94 3.38 4 6h-3c-.12.87-.25 1.73-.38 2.62-.6 3.28-1.5 6.25-2.62 9.38h-2c-.99-3.08-.92-4.92 0-8v-2h2l1-3h-7l1-6h-4v6c-.78.25-1.57.5-2.38.75C421 385 421 385 419 389l8-5c3 3.75 3 3.75 3 6l-4-1-2 3c.76.08 1.53.17 2.31.25 2.69.75 2.69.75 4.5 2.44 1.5 2.91 1.41 5.08 1.19 8.31-.28-.36-.28-.36-1.69-2.19-5-6.08-9.44-10.2-17.15-12.21-2.79-.78-5.53-1.69-8.28-2.6-1-.33-1.99-.66-3.01-1-2.66-.93-5.26-1.95-7.87-3-1.41-.49-2.83-.97-4.25-1.44-.77-.25-1.53-.5-2.32-.76-.8-.27-1.61-.53-2.43-.8-1.69-.56-3.38-1.12-5.06-1.69-.76-.25-1.51-.5-2.29-.76-.54-.18-1.09-.36-1.65-.55 3.1-.88 4.91-.99 8 0l-2-3c-.05-2.37-.05-2.37.25-5 .09-.87.18-1.73.27-2.62C383 363 383 363 385 360c.23-.85.45-1.69.69-2.56 2.91-7.63 8.32-15.05 15.31-19.44 2.36-.95 4.49-1.49 7-2v-3l-1.77-.79c-2.37-1.29-4.01-2.69-5.92-4.59-.6-.58-1.2-1.17-1.82-1.77-1.59-1.98-2.08-3.37-2.49-5.85h3c.1-14.04.18-28-1-42h-2c-.15-.73-.29-1.45-.45-2.2-2.75-12.33-7.33-22.93-17.55-30.8-7.77-4.84-14.58-6.21-23.53-4.52-9.88 2.53-17.55 8.26-23.47 16.52l-1 3c-.78.43-1.57.87-2.38 1.31-3.26 2.1-4 4.22-5.62 7.69-3.56 2.38-4.8 2.57-9 2-1.9-1.14-3.58-2.4-5.29-3.81-1.89-1.31-3.46-1.76-5.71-2.19v-2c-3 1-3 1-3.95 2.85-.24.73-.49 1.46-.74 2.21-.25.74-.5 1.47-.76 2.23-.18.56-.36 1.13-.55 1.71h-2c-.06.91-.12 1.81-.19 2.75-.94 6.76-4.05 13.61-7.81 19.25h-2l1-8-2-1c1-3 1-3 4-5 1.67-5.18 2.23-9.59 2-15-1.42.45-2.83.91-4.25 1.38-.79.25-1.58.51-2.39.77-2.36.85-2.36.85-4.41 1.91-3.45 1.66-7.19 1.68-10.95 1.94-1 .11-1.99.22-3.02.34-11.52.79-18.91-4.87-27.54-11.9-3.39-3.11-5.42-6.32-7.44-10.44-2.57.94-3.8 1.69-5.31 4-1.08 4.68-1.38 8.43.31 13 2.69 3.18 5.52 5.9 8.63 8.65.78.78 1.56 1.55 2.37 2.35v3c-3.6-.55-4.93-1.71-7.12-4.56-1.51-1.94-1.51-1.94-2.88-3.44h-2c-.6 1.13-1.2 2.27-1.81 3.44-.34.64-.68 1.27-1.02 1.93-3.12 7.02-4.7 13.53-5.05 21.19-.02.4-.02.4-.17 2.42-.34 6.5.59 12.04 4.81 17.16 8.95 7.2 16.52 11.81 28.05 12.98.4.05.4.05 2.39.27 1.93.21 3.87.41 5.8.61v2c-16.89.55-16.89.55-24-3-.82-.39-1.65-.78-2.5-1.19-.5-.27-.99-.53-1.5-.81v2c-1.45 1.2-2.89 2.39-4.36 3.57-2.6 2.26-4.59 4.94-6.58 7.74-.42.6-.85 1.2-1.29 1.82-4.68 6.82-7.72 14.22-10.77 21.87-.53 1.25-1.06 2.49-1.6 3.74-1 2.33-1.96 4.64-2.84 7.01-.25.67-.5 1.33-.76 2.02-.58 1.61-1.13 3.24-1.67 4.87-3.09 9.16-8 17.68-15.13 24.36h-2l-1 3c-3.42 1.8-6.17 2.22-10 2 1.77-1.97 3.43-3.27 5.69-4.69 4.63-2.99 9.82-7.34 12.31-12.31h2v-5c-.77.33-1.55.65-2.34.99-3.22 1.35-6.44 2.68-9.66 4.01-.73.31-1.47.61-2.23.93-9 3.59-17.95 4.41-27.58 4.32l-3.22-.03c-20.11-.29-39.74-6.02-55.97-18.22-3.7-2.73-7.2-5.29-11.44-7.12-3.98-1.79-6.25-4.65-8.96-8C67 366 67 366 64.25 363.94c-2.99-2.58-3.81-5.3-5.25-8.94-.62-.93-1.24-1.86-1.88-2.81-9.86-14.8-14.02-32.36-16.12-49.81-2.96-24.33-2.96-24.33-9.61-30.99-.52-.38-1.04-.75-1.58-1.14-.46-.37-.46-.37-2.81-2.25v-2c-14.22-3.76-14.22-3.76-21.13-1.54C4 265 4 265 0 265v-17l2-1c.29-.73.57-1.45.87-2.2C6.64 235.46 14.8 227.81 22 221c.54-.58 1.08-1.15 1.63-1.75C25 218 25 218 27 218l.79-1.82c3.51-6.3 11.66-9.66 17.79-12.88C48 202 48 202 51 200c1.2-.33 2.39-.66 3.62-1 1.12-.33 2.23-.66 3.38-1l1-2c1.93-.53 3.86-1.05 5.82-1.49 1.94-.45 3.84-1.04 5.74-1.63 3.61-.92 6.73-1.03 10.44-.88v-2c3.08-.17 6.17-.33 9.25-.5.44-.02.44-.02 2.64-.14.85-.05 1.69-.09 2.56-.14.39-.02.39-.02 2.35-.13 4.63-.19 9.21.05 13.82.35l2.07.12c5.08.32 5.08.32 7.31 1.44 3.24.53 6.49.96 9.74 1.4 3.01.56 5.46 1.38 8.26 2.6.93.29 1.86.58 2.81.88 3.92 1.38 7.52 3.2 11.19 5.12v2c.76.29 1.53.58 2.31.88C158 205 158 205 161 207v2c.44.11.44.11 2.69.69 5.72 2.27 8.25 6.21 11.31 11.31 1.65 1.69 3.31 3.35 5 5 2.7 3.07 4.02 5.1 5 9l3 1c1.18 1.68 1.18 1.68 2.31 3.88.43.8.85 1.61 1.29 2.44.46.88.92 1.77 1.4 2.68 1.06 1.92 2.12 3.83 3.19 5.75 4.87 8.8 4.87 8.8 4.69 13.19.16 3.99 1.91 5.81 4.12 9.06.25 2.88.25 2.88 0 5h2l1 6h4c.27-1.07.54-2.14.81-3.25 1.19-3.75 1.19-3.75 2.75-5.63 2.26-3.33 2.41-7.15 2.44-11.12l-1-1c-.75-7.68 2.51-14.01 7-20h1c.01-.86.03-1.72.04-2.61.37-9.2 2.17-15.96 5.96-24.39h2c.26-.57.52-1.15.79-1.74 1.3-2.43 2.78-4.31 4.59-6.38.58-.69 1.17-1.37 1.77-2.08 1.87-1.82 3.53-2.65 5.85-3.8l2-3c2.43-1.13 2.43-1.13 5.31-2.12.47-.17.47-.17 2.87-1.01 2.82-.87 2.82-.87 5.4-1.39 2.42-.48 4.55-1.23 6.86-2.1 3.87-1.35 6.53-1.52 10.56-.38v-2c.78-.06 1.56-.12 2.37-.18 1.01-.09 2.02-.17 3.07-.26 1.01-.08 2.02-.16 3.06-.24C290 189 290 189 291 188c3.61-.38 7.25-.47 10.88-.62 1.01-.06 2.03-.11 3.08-.16.98-.05 1.96-.09 2.97-.13.45-.02.45-.02 2.73-.13C313 187 313 187 316 188l2-1c2.04-.07 4.08-.08 6.12-.06 1.1.01 2.2.02 3.33.02.42.01.42.01 2.55.04-.36-1.94-.36-1.94-1-4-1.66-.69-3.33-1.35-5-2-2.75-2.56-2.75-2.56-5-5l-1-1c-.38-2.75-.38-2.75 0-6 2.17-2.57 3.98-4.49 7-6l2 1c.11-.36.11-.36.69-2.19 1.56-3.34 3.61-5.33 6.31-7.81-1.55-5.06-3.16-9.5-6-14-2.25-4.78-3.84-9.57-5.31-14.65-.55-1.86-1.17-3.71-1.81-5.54-.88-2.81-.88-2.81-1.32-6.25-.51-3.24-1.46-5.62-2.77-8.6-1.36-3.39-2.16-6.9-2.98-10.46-.17-.72-.35-1.44-.53-2.18-1.07-4.55-1.31-8.63-1.28-13.32-.62-2.84-.62-2.84-1.44-5.5-2.24-7.36-2.71-14.44-2.69-22.08 0-.45 0-.45-.01-2.72 0-1.88.01-3.76.01-5.64.01-2.88 0-5.77-.01-8.65 0-1.83.01-3.66.01-5.49 0-.87-.01-1.73-.01-2.62.03-6.07.03-6.07 1.14-8.3h2c.1-.6.21-1.2.31-1.81.82-2.59 1.56-3.52 3.69-5.19 10.32-1.62 21.05.93 30 6v2c.76-.06 1.53-.12 2.31-.19 3.27.23 3.54.87 5.69 3.19 1.98 1.05 3.97 2.05 6 3v2c.8.12 1.61.25 2.44.38.84.2 1.69.41 2.56.62l1 2c2.51 1.3 5.07 2.44 7.65 3.59 2.64 1.59 3.13 2.66 4.35 5.41 2.63 1.25 2.63 1.25 5 2v2c.91.23 1.81.45 2.75.69 3.75 1.51 4.86 3.13 7.25 6.31 2.25 1.31 2.25 1.31 4 2v2l3 1 2 2.06c2 1.94 2 1.94 5 1.94.29-.68.58-1.36.89-2.06 1.32-3.09 2.65-6.17 3.99-9.25.46-1.07.92-2.15 1.39-3.25.44-1.03.89-2.06 1.35-3.12.41-.94.81-1.89 1.23-2.87C416 36 416 36 418 33c.17-.87.33-1.73.5-2.62.17-.79.33-1.57.5-2.38l2-1c1.02-1.65 1.96-3.35 2.88-5.06.53-1 1.06-1.99 1.61-3.01 1.24-2.41 2.39-4.84 3.51-7.31 1.94-3.98 4.5-5.96 8-8.62zM209 286v5h2c-.16-.82-.16-.82-1-5z"/><path fill="#df7723" d="M323 29c10.74 1.9 21.15 11.07 29 18 .85.73 1.71 1.46 2.59 2.22 10.73 9.38 22.24 20.98 27.47 34.53C383 86 383 86 385 87c-.17-.66-.17-.66-1-4 .66.16.66.16 4 1l-2-7h-2l-.66-1.62c-2.92-6.85-6.11-14.19-11.47-19.48-2.51-2.55-2.79-4.37-2.87-7.9 1.19-1.94 1.19-1.94 3-3 8.6 1.03 16.72 10.36 22.71 16.02C397 63 397 63 399.62 64.57c2.27 1.37 3.45 2.46 5 4.55C407 72 407 72 410 73l-1-3c2.87-2.87 11.09-1.24 15.12-1.25.69 0 1.37 0 2.08-.01 9.88-.01 19.26.45 28.8 3.26v-2c-9.64-2.66-18.84-3.52-28.81-3.69-1.39-.03-2.77-.07-4.16-.1-3.34-.08-6.69-.15-10.03-.21 1.18-11.8 1.18-11.8 3.08-15.47C419.63 46.9 427.4 47.9 433 48c.16.33.16.33 1 2 1.82.71 1.82.71 4.12 1.38 4.39 1.36 7.97 3.21 11.88 5.62v2h2c1.73 1.63 3.36 3.29 5 5l3.81 3.81L464 71l-1 2-5-1c2.45 3.68 3.94 3.91 8.06 5.31 9.88 3.68 16.07 8.37 22.93 16.36 1.58 1.84 3.17 3.5 4.95 5.14 2.17 2.3 3.12 4.19 4.06 7.19h2c.28.63.55 1.25.84 1.9.36.82.72 1.63 1.1 2.48.36.81.72 1.62 1.09 2.46.63 1.4 1.28 2.79 1.97 4.16.36 7.47.36 7.47-2 11-.41 2.04-.41 2.04-.62 4.19-.07.63-.07.63-.38 3.81l-2-1c.03-.63.07-1.25.11-1.9.01-.41.01-.41.08-2.48.03-.81.07-1.62.1-2.46-.09-.71-.19-1.42-.29-2.16l-3-2q.285.855.57 1.74c.5 2.63.16 3.96-.76 6.45-.12.34-.12.34-.73 2.1-1.08 1.71-1.08 1.71-3.02 2.57-2.06.14-2.06.14-4.81-1.8L486 133l-3 3-3-1v-2h-3v2h2l-2 6 2 1-2 3h-2l-1 15h-1c-.09-.92-.17-1.84-.26-2.78-1.07-9.34-2.64-15.8-9.8-22.1-5.08-3.67-8.57-4.86-14.94-4.12-5.56 1.31-9.42 3.43-13 8-3.34 5.72-4.66 10.4-4 17 .88 2.94.88 2.94 2 5l2 1-1-2c-.59-7.57-.09-13.61 4.75-19.69 3.44-3.73 6.49-5.99 11.68-6.59 4.93-.18 8.78-.19 12.57 3.28 2.67 3.43 4.78 6.53 5.44 10.88C468 150 468 150 466 152c-2-.19-2-.19-4-1-2.43-3.64-2.16-5.71-2-10l-4 2-1-4h-4c-.82 4.39-1.25 8.66-1.38 13.12-.02.6-.02.6-.14 3.64.52 3.24.52 3.24 2.92 5.5.86.58 1.72 1.15 2.6 1.74.32.44.32.44 1.94 2.69 2.57 2.89 4.28 3.05 8.06 3.31v2l6-2c.07.31.07.31.44 1.88C472 173 472 173 473 175c2.55.31 5 .51 7.56.62l2.16.12c1.76.1 3.52.18 5.28.26v-2l-6 1v-2h2v-2c-.82.33-.82.33-5 2l-2-6 5 1v-9c2.17.51 4 1 6 2l-4-6 1-2h2v-2l3 1c-.19.6-.37 1.2-.56 1.81C489 156 489 156 490 159h4l-.06-2.25c.05-2.47.41-4.39 1.06-6.75v-2c5.75-1 5.75-1 8-1l1-2c1.33 1.27 2.67 2.54 4 3.81 4.61 2.75 10.79 2.34 16.03 2.51l3.89.12 4.02.12c1.36.05 2.73.09 4.09.13 3.33.11 6.65.21 9.97.31v2c-2.54 1.76-5.17 3.35-7.81 4.95-2.19 2.05-2.19 2.05-2.57 5.1C536 167 536 167 537 170c1.92.34 3.83.67 5.75 1 1.07.19 2.13.37 3.23.56 3.02.44 3.02.44 7.02.44q-.705 1.11-1.44 2.25c-1.34 2.36-2.07 4.12-2.56 6.75h-2c-.16.68-.33 1.36-.5 2.06-4.04 7.92-11.33 11.06-19.35 13.99-6.55 1.97-12.8 2.13-19.59 2.14l-2.77.03c-12.28.03-12.28.03-16.6-3.84-.39-.46-.79-.91-1.19-1.38h-2c1.12 3.35 1.39 3.65 4.38 5.19 11.74 4.94 29.78 2.67 41.62-1.19-1.29 3.88-2.88 4.49-6.31 6.62l-2.93 1.86C519 208 519 208 516.71 208.52c-.57.16-1.13.32-1.71.48l-1 3c-2.06 1.19-2.06 1.19-4 2 9.23-1.43 18.34-7.59 25-14 .34-.68.67-1.35 1.02-2.05 1.2-2.38 2.43-3.14 4.67-4.57 10.3-7.57 14.49-19.32 17.31-31.38.45-3.41.78-6.63 0-10-2.35-2.35-2.81-2.26-5.99-2.32l-2.49-.06-2.68-.03-2.75-.06c-2.91-.06-5.81-.11-8.71-.15l-5.9-.12c-4.83-.1-9.65-.18-14.48-.26-1.61-3.82-2.3-6.99-2.69-11.12-2.88-21.2-13.31-40.47-30.06-53.69-2.1-1.6-4.13-3.12-6.41-4.46-2.7-2.54-2.9-5-3.59-8.61l-.73-3.67c-.44-2.9-.63-5.53-.52-8.45.33-.16.33-.16 2-1 2.13 6.26 2.59 12.42 3 19 .99.16.99.16 6 1l1 4c.55.05 1.09.09 1.66.14 3.48 1.28 5.46 3.89 7.84 6.61.47.53.95 1.05 1.43 1.59 1.38 1.54 2.73 3.1 4.07 4.66.7.82 1.41 1.63 2.13 2.48 3.36 4.53 5.59 9.69 8.02 14.77.75 1.55 1.55 3.09 2.34 4.62 3.12 6.22 4.34 11.95 5.05 18.87.57 4.03 1.64 7.62 3.46 11.26 1.2-.16 2.4-.32 3.64-.49 6.36-.7 12.71-.69 19.11-.7.6 0 .6 0 3.65-.03.58-.01.58-.01 3.52-.01 1.05 0 2.1-.01 3.18-.01 2.9.24 2.9.24 7.9 2.24v22h-2c-.11.57-.22 1.14-.33 1.72-1.63 7.93-3.63 13.65-9.67 19.28-1.16 1.32-2.3 2.66-3.44 4-2.96 3.42-6.04 6.17-9.56 9-.7.78-1.4 1.57-2.12 2.38-7.09 6.46-15.96 10.36-24.88 13.62-.84.35-1.68.7-2.55 1.07-3.11 1.18-6.15 1.54-9.45 1.93 1.57 3.47 3.16 6.29 5.75 9.06 2.25 2.94 2.25 2.94 2.19 5.5-.65 1.68-1.31 3.34-2 5C501 245 501 245 501 249c1.65 1.02 3.32 2.02 5 3 8.23 11.56 10.99 25.03 10 39-1.02 5.61-2.27 10.97-5 16-2.87.19-2.87.19-6 0-.33-.5-.33-.5-2-3-1.66-.69-3.33-1.35-5-2-2.02-1.3-4.03-2.62-6-4-.17.89-.34 1.78-.52 2.7-.12.59-.12.59-.73 3.55-.12.58-.12.58-.7 3.52-1.13 3.49-2.15 5.03-5.05 7.23h-3c-1.33 2.37-2.12 4.47-2.81 7.12-2.82 10.21-9.14 20.95-17.19 27.88h-2c-.85 2.71-1.32 4.23-1 7 1.58 2.36 3.34 4.28 5.34 6.3C466 365 466 365 467 367c.62.24 1.23.49 1.87.74 3.11 1.84 3.78 4.16 5.19 7.45.51 1.16 1.02 2.33 1.55 3.53.46 1.08.92 2.17 1.39 3.28.35.76.69 1.52 1.05 2.31 1.26 2.77 1.95 4.61 1.95 7.69h2c.96 4.04 1.17 7.85 1.19 12 .01 1.2.03 2.39.04 3.62-.22 3.29-.71 5.48-2.23 8.38l-2 1c-.29.76-.58 1.53-.88 2.31-1.25 3.01-2.64 4.6-5.12 6.69h-2l-1 3c-9.51 3.35-18.75 2.84-28-1v-2c-.62-.14-1.24-.29-1.88-.44C438 425 438 425 436 424c.52 4.98 2.17 9.09 4.16 13.63.84 2.37.84 2.37.84 6.37h2l1 4-3 1c-12.16-29.5-12.16-29.5-12-44l1-2h2c-.88-5.37-.88-5.37-2-8-3.13-2-3.13-2-6-3l2-4 4 2-4-5c-.78.66-1.57 1.32-2.38 2-2.62 2-2.62 2-4.62 2 .57-2.87.86-3.86 3-6h4l-1-6 5-1c.62 1.81.62 1.81 1 4l-2 3 2-1q3-.06 6 0l-2 4h-2c.09.36.09.36.56 2.19.46 2.94.18 4.95-.56 7.81h2c-.06-.68-.12-1.36-.19-2.06.24-3.8 1.5-6.56 3.19-9.94l2-1c-.68-.74-1.36-1.49-2.06-2.25-1.94-2.75-1.94-2.75-1.75-4.94.57-1.28 1.18-2.55 1.81-3.81h3v3l2-1-1-6-6 2-3-3 1-3c3.3.1 6 .59 9 2 3.19 3.56 7.14 8.11 6.89 13.12-1.11 2.34-2.47 3.82-4.33 5.63-.61.61-1.23 1.23-1.87 1.86C442 388 442 388 440 388c-.16 9.61-.16 9.61 1 13 2.06 1.81 2.06 1.81 4 3l-1 4 7 1v-4h2v7c-4.07 2.04-6.59 2.03-11 1v4l-2 1c3.72 4.29 6.4 6.01 12 7 10.01.66 10.01.66 14-2 3.4-7.52 2.17-14.4 0-22h3c3.27 3.27 2.85 7.53 3 12-.18 2.4-.54 4.63-1 7 .45-.5.91-.99 1.38-1.5C474 417 474 417 476 417c.39-3.66.71-7.33 1-11 .08-.82.16-1.65.24-2.5.54-9.6-3.49-18.94-9.24-26.5-.56-.84-1.13-1.68-1.71-2.55-5.43-7.93-11.12-14.09-20.29-17.45l1-3h3l-3-1c.57-3.87 2.39-6.15 5-9h2c.12-.89.25-1.77.38-2.69.56-3.01 1.39-5.51 2.62-8.31h-3c-.08.68-.16 1.36-.25 2.06-1.62 6.36-5.5 11.11-9.75 15.94-5.33-.49-9.27-3.35-13.69-6.12l-2.42-1.51C410.98 332.78 410.98 332.78 409 328l1.1-1.41c9.84-13.52 13.14-28.2 10.58-44.65-.55-2.86-1.24-5.66-2.02-8.47C418 271 418 271 418 268l5 1c-.16-.82-.16-.82-1-5-.55-.11-1.1-.22-1.66-.34-9.76-2.75-18.88-9.23-27.34-14.66-.52-.33-.52-.33-3.15-2.02-2.47-1.72-4.51-3.4-6.6-5.54l-1.73-1.76C380 238 380 238 378 235c-1.95-.5-3.91-.98-5.88-1.41-2.62-.73-4.7-2.09-7.01-3.51-6.73-3.45-14.59-5.38-22.11-6.08.57-2.87.86-3.86 3-6-.11-2.57-.52-5.04-.91-7.59C345 208 345 208 347 205c4.65.34 8.4 1.03 12.69 2.88 5.91 2.52 12.03 3.82 18.31 5.12-2.34-3.52-3.71-3.96-7.56-5.5-1.09-.43-2.17-.87-3.29-1.31-3.24-1.22-6.5-2.32-9.79-3.38-7.22-2.48-14.23-5.21-20.36-9.81.37-2.67.82-3.82 2.75-5.75 2.63-1.46 4.29-1.5 7.25-1.25v-2c-.51-.05-.51-.05-3.06-.31-4.15-.73-7.15-1.91-10.94-3.69v-2q-1.14-.405-2.31-.81c-2.56-1.13-3.89-2.1-5.69-4.19 1.12-3.37 2.07-4.15 4.75-6.38 1.43-1.19 2.84-2.4 4.25-3.62.4-.33.4-.33 2.43-2.02 3.7-4.29 5.65-9.12 7.88-14.29.46-1.03.91-2.06 1.38-3.11 1.11-2.52 2.22-5.05 3.31-7.58h-3c-.12.57-.24 1.14-.37 1.73-.66 2.37-1.57 4.34-2.69 6.52-.36.71-.73 1.41-1.1 2.14L341 148c-2-1.81-2-1.81-4-4v-3h-2l-6-18c3.88 1.87 3.88 1.87 5 3 1.67.04 3.33.04 5 0 1.15-3.98 1.14-5.69-.55-9.55-.72-1.26-1.45-2.52-2.2-3.76-3.12-5.48-5.46-10.61-7.25-16.69l-.97-1.76c-1.45-3.16-1.98-6.46-2.59-9.86-1.32-7.14-1.32-7.14-2.44-9.38-1.98-9.47-2.21-18.98-2.25-28.62l-.03-3.45c.01-1.09.01-2.17.01-3.28.01-.97.01-1.94.01-2.93.28-2.9 1.05-5.08 2.26-7.72m109 386 2 5 1-2-1-3z"/><path fill="#d97120" d="M86 196c4.39-.05 8.78-.09 13.18-.11 1.49-.01 2.98-.02 4.47-.04 10.09-.12 18.85.3 28.35 4.15 1.99.38 3.99.72 6 1v2c.68.1 1.36.21 2.06.31 15.95 3.73 30.86 18.56 39.94 31.69q1.215 2.22 2.31 4.5C184 243 184 243 187 245c.77 1.9 1.52 3.81 2.2 5.75.77 2.15 1.65 4.18 2.61 6.25 2.21 4.88 4.05 9.88 5.9 14.91 1.56 4.24 3.27 8.39 5.1 12.53 1.58 3.66 2.47 6.71 2.75 10.68.07.64.07.64.44 3.88 1.96 1.12 1.96 1.12 4 2 1.18 2.37 1.28 4.18 1.5 6.81.09.9.17 1.79.26 2.71.08.82.16 1.64.24 2.48.31 3 .31 3 1 5 .6.29 1.19.57 1.81.87 2.64 1.36 4.04 2.99 5.94 5.25.61.73 1.23 1.45 1.86 2.2.46.55.92 1.11 1.39 1.68-1.44 3.11-3.04 5.01-5.5 7.39-5.37 5.77-9.14 12.13-11.5 19.61h-2c-.05.53-.05.53-.31 3.19-.69 3.84-1.72 5.54-3.69 8.81-.83 2.15-1.62 4.32-2.38 6.5-3.29 8.62-7.28 11.65-15.51 15.39C181 390 181 390 180 392c-2.51 1.04-2.51 1.04-5.69 2.06-1.03.34-2.07.69-3.13 1.04-18.41 5.23-40.55 2.43-58.56-3.04-.84-.25-1.68-.5-2.54-.76-.78-.25-1.55-.51-2.35-.76-.7-.23-1.39-.45-2.11-.68C104 389 104 389 103 386c-1.33-.36-2.66-.68-4-1-2.39-1.24-4.68-2.62-7-4v-2c-.76-.29-1.53-.58-2.31-.88C87 377 87 377 84 375v-2c-.57-.25-1.14-.5-1.73-.75C74.36 367.89 68.74 359.46 64 352c-.63-.98-1.27-1.97-1.92-2.98-3.28-5.34-5.67-9.95-6.69-16.15C55 331 55 331 53.5 328.62c-2.41-4.22-2.79-8.86-3.5-13.62-.11-.75-.23-1.5-.34-2.27-.23-1.57-.45-3.15-.66-4.73h-2c-.09-.83-.19-1.65-.29-2.5-.37-3.12-.75-6.23-1.14-9.34-.25-1.99-.48-3.98-.71-5.97-1.25-9.74-3.45-19.11-11.1-25.88-9.1-6.79-17.78-7.17-28.76-7.31 4.5-16.27 15.37-27.97 28.5-38.19q.795-.615 1.62-1.26c7.34-5.59 15.59-9.56 23.88-13.55.79-.4 1.58-.79 2.4-1.2 7.81-3.58 16.14-4.05 24.6-4.8z"/><path fill="#e5d2b0" d="M291.5 424.813c4.1 1.95 6.32 5.28 8.5 9.19.85 4.09-.07 6.28-2 9.81-2.38 4.53-3.03 8.14-2 13.19 3.25 8.94 8.74 15.96 15 23a721 721 0 0 0 6.95 7.72c1.76 1.96 3.41 3.97 5.05 6.03 6.76 7.81 14.89 10.96 25 12.25 9.48.68 18.73.24 28-2 2.53-6.23 4.23-12.26 3-19-2.22-4.35-5.85-6.63-10-9v-2l-2.3-.12c-.99-.06-1.99-.13-3.01-.19l-2.99-.18c-2.7-.51-2.7-.51-4.56-1.81-1.14-1.7-1.14-1.7-1.14-5.7h-2c-.54-3.93-.96-7.49 1.23-10.94 1.74-1.85 3.55-3.53 5.46-5.19 11.02-10.01 11.02-10.01 13.31-16.87 3 1 3 1 4.22 2.9.42.86.84 1.72 1.28 2.6 3.89 7.43 8.47 14.36 13.09 21.35q2.01 3.06 3.99 6.12c5.44 8.32 11.27 16.22 17.42 24.03 1.25 1.62 2.5 3.25 3.75 4.87 1.08 1.38 2.17 2.75 3.25 4.13.48.62.95 1.25 1.45 1.89 5.53 6.94 12.91 11.86 21.55 14.11 3.66.4 7.26.42 10.94.37.47.01.47.01 2.84.04 7.56-.03 14.23-.99 20.22-5.85 3.64-4.66 3.18-8.82 3-14.56l-1-3c.5-.33.5-.33 3-2 .73 1.97 1.39 3.98 2 6l-1 2c-.04 2.33-.04 4.66 0 7 1.18-.02 2.35-.04 3.56-.07 3.89 0 7.61.36 11.44 1.07l1 1c1.75.1 3.5.18 5.25.25 3.83.29 6.21.51 8.94 3.31.6.8 1.19 1.61 1.81 2.44l-2 6c-1.07.13-2.14.26-3.25.4-1.39.18-2.79.36-4.19.53-.7.09-1.41.18-2.14.27-5.31.68-5.31.68-6.42 1.8-9.83 1.35-19.86 1.3-29.77 1.55-1.99.05-3.99.11-5.99.17l-3.56.09c-2.68.19-2.68.19-3.68 1.19-1.78.08-3.56.1-5.35.1-1.08-.01-2.16-.01-3.27-.01l-3.44-.03c-1.14 0-2.28-.01-3.46-.01-2.83-.02-5.65-.03-8.48-.05v2H230v-2h-34v-2c-.63 0-1.26.01-1.9.01-13.74.1-27.39-.11-41.1-1.01v-2l-3 2c-3.19.12-3.19.12-6 0v-2l-2.13.03c-23.4.22-23.4.22-31.87-5.03v2h-3v-2l-1.83.03c-.4.01-.4.01-2.42.03-.39.01-.39.01-2.39.04-2.3-.1-4.19-.34-6.36-1.1l-1-2-3-1c-.88-1.88-.88-1.88-1-4 2.17-3.2 5.49-4.62 9-6 2.81-.36 5.59-.56 8.41-.69 2.59-.31 2.59-.31 4.48-1.26 2.98-1.49 5.89-1.82 9.17-2.3 1.23-.19 2.46-.38 3.73-.58 3.21-.17 3.21-.17 6.21 1.83v2h2c1.11 1.42 1.11 1.42 2.31 3.31 3.85 5.57 8.22 7.08 14.69 8.69 17.38 1.49 17.38 1.49 24-4 5.13-4.88 6.99-8.56 7.29-15.64 1.08-18.94 1.08-18.94 8.71-26.36.67-.67 1.34-1.35 2.03-2.04 7.01-6.56 12.83-8.38 22.28-8.53 6.14-.11 11.83-.47 17.8-2 2.33-.53 4.51-.59 6.89-.43v-2c.82-.18 1.64-.37 2.48-.55 1.08-.25 2.16-.51 3.27-.76 1.07-.25 2.13-.49 3.23-.74 2.97-.94 4.65-2 7.02-3.95.37-.14.37-.14 2.25-.81 3.34-1.45 5.89-3.45 8.75-5.67 1.76-1.34 3.53-2.57 5.38-3.77 2.62-1.75 2.62-1.75 4.62-3.75 1.73-.75 1.73-.75 3.75-1.44 2.69-.95 4.91-1.93 7.44-3.31 2.81-1.25 2.81-1.25 5.31-1.44"/><path fill="#db7220" d="M228 329c3.47.81 6.69 1.99 10 3.28 9.25 3.33 19.12 2.67 28-1.28 4.85 0 5.52.94 9.06 4.06 5.36 4.55 10.93 8.32 16.94 11.94.86.53 1.73 1.06 2.62 1.6 5.74 3.37 12.04 5.44 18.38 7.4 1.09.36 2.17.71 3.29 1.08 3.3.82 6.17 1.08 9.56 1.1 7.18.04 11.75 1 17.11 6.03 3.24 2.85 7.04 4.27 11.04 5.79v2c1.01.27 2.02.54 3.06.81 2.59.73 4.78 1.57 7.25 2.69 3.88 1.58 7.44 2.27 11.55 2.88C378 379 378 379 380 382c-11.7 6.84-11.7 6.84-15.94 9.25-1.98 1.13-3.94 2.3-5.87 3.5C356 396 356 396 354 396v2c-.57.22-1.14.44-1.73.66-6.23 2.44-12.26 5.17-18.29 8.07-2.7 1.15-5.09 1.83-7.98 2.27v2c-.85.25-1.69.51-2.56.77-10.38 3.15-10.38 3.15-14.69 4.92-4.28 1.5-8.25 2.01-12.75 2.31 1.27-3.8 2.64-4 6-6a89 89 0 0 0 3-4l-2.05 1.32c-5.56 3.56-11.15 7.02-16.86 10.32-2.09 1.36-2.09 1.36-3.66 2.93-2.01 2.01-4.45 2.92-6.99 4.13-5.06 2.69-9.7 6.09-14.44 9.3-16.94 11.39-34.69 14.43-54.67 15.77-2.49.25-4.88.72-7.33 1.23-6.42.73-10.06-1.18-15-5-1.73-1.42-1.73-1.42-3-3v-4h-2c-.51-1.58-1.01-3.17-1.5-4.75-.28-.88-.56-1.76-.84-2.67C176 432 176 432 176 428h-2q-.075-3.69-.12-7.38l-.06-2.11c-.01-1.84.08-3.68.18-5.51 2-2 2-2 3.9-2.38 2.82-.83 3.82-2.24 5.66-4.5 3.35-4.04 3.35-4.04 4.98-5.55 6.24-6.69 9-17.3 12.07-25.81 1.32-3.65 2.85-7.2 4.39-10.76.47-1.22.95-2.44 1.44-3.69 4.35-10.94 10.49-21.52 19.56-29.31h2z"/><path fill="#3c3828" d="M472 58c2.02 3.45 2.57 6.69 3.12 10.62.17 1.15.34 2.3.51 3.48.37 2.9.37 2.9.37 4.9l6 1 1 4c.27.02.27.02 1.66.14 3.48 1.28 5.46 3.89 7.84 6.61.24.26.24.26 1.43 1.59 1.38 1.54 2.73 3.1 4.07 4.66.35.41.35.41 2.13 2.48 3.36 4.53 5.59 9.69 8.02 14.77.75 1.55 1.55 3.09 2.34 4.62 3.12 6.22 4.34 11.95 5.05 18.87.57 4.03 1.64 7.62 3.46 11.26 1.2-.16 2.4-.32 3.64-.49 6.36-.7 12.71-.69 19.11-.7.6 0 .6 0 3.65-.03.58-.01.58-.01 3.52-.01 1.05 0 2.1-.01 3.18-.01 2.9.24 2.9.24 7.9 2.24v22h-2c-.11.57-.22 1.14-.33 1.72-1.63 7.93-3.63 13.65-9.67 19.28-1.16 1.32-2.3 2.66-3.44 4-2.96 3.42-6.04 6.17-9.56 9-.7.78-1.4 1.57-2.12 2.38-7.09 6.46-15.96 10.36-24.88 13.62-.84.35-1.68.7-2.55 1.07-3.11 1.18-6.15 1.54-9.45 1.93 1.57 3.47 3.16 6.29 5.75 9.06 2.25 2.94 2.25 2.94 2.19 5.5-.65 1.68-1.31 3.34-2 5C501 245 501 245 501 249c1.65 1.02 3.32 2.02 5 3 8.23 11.56 10.99 25.03 10 39-1.02 5.61-2.27 10.97-5 16-2.88.19-2.88.19-6 0l-2-3c-1.66-.69-3.33-1.35-5-2-2.02-1.3-4.03-2.62-6-4-.17.89-.34 1.78-.52 2.7-.12.59-.12.59-.73 3.55-.12.58-.12.58-.7 3.52-1.13 3.49-2.15 5.03-5.05 7.23h-3c-1.33 2.37-2.12 4.47-2.81 7.12-2.82 10.21-9.14 20.95-17.19 27.88h-2c-.85 2.71-1.32 4.23-1 7 1.58 2.36 3.34 4.28 5.34 6.3C466 365 466 365 467 367c.62.24 1.23.49 1.87.74 3.11 1.84 3.78 4.16 5.19 7.45.51 1.16 1.02 2.33 1.55 3.53.46 1.08.92 2.17 1.39 3.28.35.76.69 1.52 1.05 2.31 1.26 2.77 1.95 4.61 1.95 7.69h2c.96 4.04 1.17 7.85 1.19 12 .01 1.2.03 2.39.04 3.62-.22 3.29-.71 5.48-2.23 8.38l-2 1c-.29.76-.58 1.53-.88 2.31-1.25 3.01-2.64 4.6-5.12 6.69h-2l-1 3c-9.51 3.35-18.75 2.84-28-1v-2c-.62-.14-1.24-.29-1.88-.44C438 425 438 425 436 424c.52 4.98 2.17 9.09 4.16 13.63.84 2.37.84 2.37.84 6.37h2l1 4-3 1c-12.16-29.5-12.16-29.5-12-44l1-2h2c-.88-5.37-.88-5.37-2-8-3.13-2-3.13-2-6-3l2-4 4 2-4-5c-.78.66-1.57 1.32-2.38 2-2.62 2-2.62 2-4.62 2 .57-2.87.86-3.86 3-6h4l-1-6 5-1c.62 1.81.62 1.81 1 4l-2 3 2-1q3-.06 6 0l-2 4h-2c.09.36.09.36.56 2.19.46 2.94.18 4.95-.56 7.81h2c-.06-.68-.12-1.36-.19-2.06.24-3.8 1.5-6.56 3.19-9.94l2-1c-.68-.74-1.36-1.49-2.06-2.25-1.94-2.75-1.94-2.75-1.75-4.94.57-1.28 1.18-2.55 1.81-3.81h3v3l2-1-1-6-6 2-3-3 1-3c3.3.1 6 .59 9 2 3.19 3.56 7.14 8.11 6.89 13.12-1.11 2.34-2.47 3.82-4.33 5.63-.61.61-1.23 1.23-1.87 1.86C442 388 442 388 440 388c-.16 9.61-.16 9.61 1 13 2.06 1.81 2.06 1.81 4 3l-1 4 7 1v-4h2v7c-4.07 2.04-6.59 2.03-11 1v4l-2 1c3.72 4.29 6.4 6.01 12 7 10.01.66 10.01.66 14-2 3.4-7.52 2.17-14.4 0-22h3c3.27 3.27 2.85 7.53 3 12-.18 2.4-.54 4.63-1 7 .45-.5.91-.99 1.38-1.5C474 417 474 417 476 417c.39-3.66.71-7.33 1-11 .08-.82.16-1.65.24-2.5.54-9.6-3.49-18.94-9.24-26.5-.56-.84-1.13-1.68-1.71-2.55-5.43-7.93-11.12-14.09-20.29-17.45l1-3h3l-3-1c.57-3.87 2.39-6.15 5-9h2c.12-.89.25-1.77.38-2.69.56-3.01 1.39-5.51 2.62-8.31h-3c-.08.68-.17 1.36-.25 2.06-1.62 6.36-5.5 11.11-9.75 15.94-5.33-.49-9.27-3.35-13.69-6.12l-2.42-1.51C410.98 332.78 410.98 332.78 409 328l1.1-1.41c9.84-13.52 13.14-28.2 10.58-44.65-.55-2.86-1.24-5.66-2.02-8.47C418 271 418 271 418 268l5 1c-.16-.82-.16-.82-1-5-.55-.11-1.1-.22-1.66-.34-9.76-2.75-18.88-9.23-27.34-14.66-.52-.33-.52-.33-3.15-2.02-2.47-1.72-4.51-3.4-6.6-5.54l-1.73-1.76C380 238 380 238 378 235c-1.95-.5-3.91-.98-5.88-1.41-2.62-.73-4.7-2.09-7.01-3.51-6.73-3.45-14.59-5.38-22.11-6.08.57-2.87.86-3.86 3-6-.11-2.57-.52-5.04-.91-7.59C345 208 345 208 347 205c4.65.34 8.4 1.03 12.69 2.88 5.91 2.52 12.03 3.82 18.31 5.12v-2c1.33.09 2.67.2 4 .31l2.25.18c2.96.55 5.59 1.57 8.39 2.66 4.71 1.7 9.59 2.87 14.42 4.16 12.24 3.36 24.07 7.02 35.01 13.61 1.93 1.08 1.93 1.08 4.39 2.03 3.47 1.44 6.3 3.54 9.36 5.71 2.1 1.29 3.77 1.9 6.18 2.34.22-.54.44-1.08.66-1.64 6.36-11.21 19.17-20.11 31.28-23.48 1.17-.3 2.34-.6 3.54-.9 4.61-1.28 8.85-3.14 13.19-5.12.77-.29 1.54-.57 2.33-.86l2 1-5 3c9.23-1.43 18.34-7.59 25-14 .34-.68.67-1.35 1.02-2.05 1.2-2.38 2.43-3.14 4.67-4.57 10.3-7.57 14.49-19.32 17.31-31.38.45-3.41.78-6.63 0-10-2.35-2.35-2.81-2.26-5.99-2.32l-2.49-.06-2.68-.03-2.75-.06c-2.91-.06-5.81-.11-8.71-.15l-5.9-.12c-4.83-.1-9.65-.18-14.48-.26-1.61-3.82-2.3-6.99-2.69-11.12-2.88-21.2-13.31-40.47-30.06-53.69-2.1-1.6-4.13-3.12-6.41-4.46-2.7-2.54-2.9-5-3.59-8.61-.24-1.21-.48-2.42-.73-3.67-.44-2.91-.71-5.53-.52-8.45zm-40 357 2 5 1-2-1-3z"/><path fill="#e17824" d="M86 196c4.39-.05 8.78-.09 13.18-.11 1.49-.01 2.98-.02 4.47-.04 10.09-.12 18.85.3 28.35 4.15 1.99.38 3.99.72 6 1v2c.68.1 1.36.21 2.06.31 4.76 1.12 8.89 2.99 12.94 5.69 1.19 3.62 1.19 3.62 2 7h5c.13.4.13.4.81 2.44.2.42.2.42 1.19 2.56l3 1c.7 1.32 1.37 2.65 2 4l2 1v2c.6.08 1.2.17 1.82.25 2.85.98 3.48 2.15 5.06 4.69.5.8 1.01 1.61 1.53 2.44.52.87 1.05 1.73 1.59 2.62.56.88 1.11 1.77 1.68 2.68 4.55 7.34 4.55 7.34 5.32 11.32-.33.16-.33.16-2 1l-2-1c1.12 2.88 1.12 2.88 3 6 1.98.73 3.98 1.4 6 2 2.2 2.9 2.2 5.43 2 9h2c.84 2.94 1.67 5.87 2.5 8.81.24.84.48 1.67.72 2.53.23.8.45 1.6.69 2.43.1.37.1.37.63 2.24.46 1.99.46 1.99.46 4.99l-2 2v3l-3 1-2 3h-2v2l-4 1v-3l2-1-1-2c-1.5 1.25-1.5 1.25-3 3v4l-2.06-1c-2.94-1-2.94-1-6.25-.75-4.65-.31-6.53-2-9.99-4.94C165 296 165 296 163 296v4h4c-1.2 2.49-2.45 4.68-4 7-2 .68-4 1.35-6 2-.47.52-.95 1.03-1.44 1.56-2.58 2.38-5.16 2.32-8.56 2.44-1.94-1.44-1.94-1.44-3-3l2-5 2.81.06C152 305 152 305 155 304v-2c-.54.1-.54.1-3.25.62-3.63.37-4.83.36-7.75-1.62v2l-5-2v-4h3c-1.12-1.5-1.12-1.5-3-3-3.06-.12-3.06-.12-6 0l-2-1c.16-.5.16-.5 1-3 7.98-.46 7.98-.46 11.5 1.12 2.02 2.53 2.22 4.71 2.5 7.88h3l1-3 8 4v-5c-.52.25-1.03.5-1.56.75-3.91.4-6.18-1.68-9.44-3.75l1-4 4-1c.12.64.25 1.28.38 1.94.2.68.41 1.36.62 2.06l2 1 1-5c3.38-.84 5.67-1.11 9 0-.51 2.17-1 4-2 6 .45-.33.45-.33 2.75-2 3.25-2 3.25-2 7.25-2l1 7h4l2 1q-.705-1.14-1.44-2.31C177 292 177 292 176 289h-2c.28-1.42.58-2.83.88-4.25l.49-2.39c.62-2.33 1.48-4.25 2.63-6.36l4 1v2l5 1c-.5-.58-.99-1.15-1.5-1.75C184 276 184 276 184 272l-3-1c-.33.16-.33.16-2 1-2.33.04-4.67.04-7 0v-3h6c-.14-1.46-.29-2.92-.44-4.38l-.24-2.46C177 260 177 260 176 258h-2v8l-3 1c-2.75-1.38-3.51-3.37-5-6l-1 4h-2c.25.87.5 1.73.75 2.62.32 4.38-1.27 5.89-3.75 9.38l1 3h3c.33-.5.33-.5 2-3l3 1v3h-2l-1 3-10-1c-.12-3.38-.12-3.38 0-7l2-2c-.61-.19-1.23-.39-1.86-.59-.81-.26-1.62-.52-2.45-.79-.8-.25-1.6-.51-2.43-.77C149 271 149 271 146 269l-2 6-2-2c.69-2.38.69-2.38 2-5 2.56-1.19 2.56-1.19 5-2l1-2c-1.29.45-2.59.91-3.88 1.38-.71.25-1.43.51-2.17.77C142 267 142 267 140 269c-.93.43-1.86.87-2.81 1.31-3.41 1.81-5.59 3.87-8.19 6.69l-2-3 2-2-1-5h11c-.39-1.07-.78-2.14-1.19-3.25-.13-.62-.13-.62-.81-3.75 1.38-2.13 1.38-2.13 3-4 .19-2.75.19-2.75 0-5h2v-2l5 1v2l-3 3c-1.17 2.04-1.17 2.04-2.19 4.19-.17.36-.17.36-1.04 2.17-.25.54-.51 1.08-.77 1.64.61-.22 1.23-.43 1.86-.66.81-.27 1.62-.55 2.45-.84.8-.28 1.6-.56 2.43-.84C149 260 149 260 152 260l-3-7c.64-.6 1.28-1.2 1.94-1.81C153 249 153 249 154 246l-3 2c-1.9.04-1.9.04-4.01-.24-.76-.1-1.52-.2-2.3-.3-.78-.11-1.57-.22-2.38-.34-.79-.1-1.59-.2-2.41-.31-1.97-.26-3.94-.53-5.9-.81v2c-1.24-.08-2.47-.16-3.75-.25-3.36-.02-4 .05-6.75 2.25-.5.66-.99 1.32-1.5 2h2l1 3 2 1v3h-3v4c-.5-.16-.5-.16-3-1v-2h-2l-1-2c-.5-.17-.5-.17-3-1-.27.64-.54 1.28-.81 1.94C113 261 113 261 110 262l-1 5c-.5.16-.5.16-3 1-2-2-2-2-2.12-4.62L104 261h-3l1-4h-2l-2 5h-3v-2c-.72.52-1.44 1.03-2.19 1.56-5.14 2.67-11.29 1.12-16.81.44.37 2.44.37 2.44 1 5l2 1v2h5c.08.62.17 1.24.25 1.88.75 2.12.75 2.12 2.81 3.37.32.12.32.12 1.94.75.12-.32.12-.32.75-1.94C91 272 91 272 93.12 271.25c.62-.08 1.24-.17 1.88-.25v4l4 2-4 5 6-1 1 2h-6v2h2l1 2c.36-.13.36-.13 2.19-.81 2.81-.19 2.81-.19 5.62 2.25L109 291c-.19.28-.19.28-1.12 1.69-.88 2.31-.88 2.31 0 5.06.18.37.18.37 1.12 2.25h-3c-1.39-1.53-1.39-1.53-2.69-3.5-.43-.65-.87-1.3-1.32-1.97-.33-.5-.65-1.01-.99-1.53-3.88 1.75-3.88 1.75-5 4-2.37-.62-2.37-.62-5-2-2.29-4.7-2.57-9.85-3-15h-2v-2c-.39-.15-.39-.15-2.38-.94C81 276 81 276 79 275v2l4 2v2c-3 2-3 2-5.56 1.88C75 282 75 282 73.69 279.94c-.23-.64-.46-1.28-.69-1.94h-2c.17.93.33 1.86.5 2.81.74 5.05.58 10.1.5 15.19h-2l-2-3c-.31-.06-.31-.06-1.88-.38-3.12-.91-4.21-3.07-6.12-5.62-.33-.16-.33-.16-2-1l1 2.06c1.17 3.45 1.14 6.32 1 9.94h-4v9h-2v-3h-2v-3l-5-1v-6h-2c-.09-.97-.17-1.93-.26-2.93-1.1-10.17-2.93-19.63-10.98-26.76-9.1-6.79-17.78-7.17-28.76-7.31 4.5-16.27 15.37-27.97 28.5-38.19q.795-.615 1.62-1.26c7.34-5.59 15.59-9.56 23.88-13.55.79-.4 1.58-.79 2.4-1.2 7.81-3.58 16.14-4.05 24.6-4.8z"/><path fill="#e07623" d="M359.3 238.676c8.67-.62 15.81 3.06 22.36 8.55 5.67 5.51 9.13 10.84 12.03 18.21.43 1.09.87 2.19 1.32 3.31 1 3.28 1.18 5.85.99 9.25h2c2.06 14.17 2.46 27.72 1 42h-3c2.81 4.81 6.03 7.93 10.39 11.39 1.61 1.61 1.61 1.61 1.61 4.61-1.27.65-2.54 1.3-3.81 1.94l-2.15 1.09c-2.04.97-2.04.97-5.04 1.97-.17.5-.17.5-1 3-1.33 1.34-2.67 2.67-4 4-3.35 4.11-5.6 7.84-7 13-.19.59-.19.59-1.13 3.57-1.11 4.36-1.29 7.17.13 11.43-1.75-.14-3.5-.28-5.25-.43-.49-.04-.49-.04-2.95-.25-2.37-.27-4.52-.67-6.8-1.32v-2c-.73-.17-1.45-.34-2.2-.51-5.72-1.44-9.99-2.96-14.8-6.49-1.26-.59-2.54-1.18-3.81-1.75-8.31-4.08-14.8-10.59-18.19-19.25-.5-2.34-.75-4.61-1-7-.33-.16-.33-.16-2-1v-7h-2l-1-20h-2l2 27c-5.51-1.1-9.47-3.08-14.38-5.68-.82-.43-1.65-.85-2.5-1.28-5.34-2.82-9.68-5.94-14.12-10.04l1-3c.49-.16.49-.16 3-1 1.61-2.16 3.1-4.3 4.56-6.56 1.43-2.2 2.89-4.32 4.44-6.44h2c.18-.64.36-1.28.55-1.94 1.15-3.96 2.3-7.73 4.01-11.49 1.92-4.75 2.66-9.53 3.44-14.57h-2l-1 5c-1-3.09-.88-4.9 0-8 1.26-.2 2.52-.41 3.81-.62 3.55-.87 3.98-1.03 6-4.31.39-1.01.79-2.02 1.19-3.07 1.5-1.87 1.5-1.87 3-3h3c.08-.55.16-1.11.25-1.69 2.08-6.41 8.62-11.99 14.31-15.31 4.86-2.37 9.42-3.57 14.74-4.32"/><path fill="#f7e5bd" d="M387.122 164.917c9.27-.32 17.62.11 26.68 2.36 3.93.89 7.78 1.21 11.8 1.41 2.72.35 4.87 1.25 7.4 2.31 1.3.33 2.62.62 3.94.88 2.72.55 5.28 1.2 7.92 2.09 9.58 3.2 18.38 3.62 28.41 3.5 2.59-.03 5.19-.02 7.79-.01 14.3-.02 27.13-1.97 40.66-6.78 1.3-.46 2.6-.91 3.9-1.36.66-.24 1.31-.48 1.99-.73 3.45-1.19 5.92-2.04 9.39-.59v2c1.91.34 3.83.67 5.75 1 1.07.19 2.13.37 3.23.57 3.02.43 3.02.43 7.02.43-.48.75-.95 1.49-1.44 2.25-1.34 2.36-2.07 4.12-2.56 6.75h-2c-.17.68-.33 1.36-.5 2.07-4.04 7.91-11.33 11.05-19.35 13.99-6.56 1.96-12.8 2.13-19.59 2.13-.91.01-1.83.02-2.77.04-12.28.02-12.28.02-16.6-3.85-.2-.23-.2-.23-1.19-1.38h-2c1.12 3.35 1.38 3.65 4.37 5.19 11.75 4.94 29.79 2.67 41.63-1.19-2.01 6.03-9.73 8.83-15.13 11.62-8.73 4.14-17.74 7.48-26.96 10.34-9.64 3.44-22.18 12.59-26.91 22.04-3.85-.55-6.2-1.58-9.31-3.87-3.37-2.34-6.47-3.93-10.39-5.23-2.93-1.14-5.59-2.65-8.36-4.15-13.27-6.93-28.45-10.24-42.88-13.92-3.07-.83-6.06-1.8-9.06-2.83-.74-.23-1.48-.47-2.24-.71-4.67-1.49-9.07-3.28-13.52-5.32-2.16-.93-4.31-1.69-6.55-2.4-8-2.59-15.93-5.49-22.69-10.57.36-2.62.82-3.82 2.69-5.75 2.91-1.57 5.04-1.47 8.31-1.25v-3h-3c2.03-4.99 4.94-7.99 9.71-10.32 3.08-1.29 6.17-2.49 9.29-3.68.69-.31 1.39-.62 2.1-.94 6.73-2.95 13.78-2.86 21.02-3.14"/><path fill="#453b2b" d="M364 397h2c.28 1.07.55 2.14.84 3.25.37 1.39.73 2.79 1.1 4.19l.55 2.14c1.4 5.31 1.4 5.31 2.51 6.42.04 1.67.04 3.33 0 5h2c.24.69.49 1.38.74 2.1 3.28 8.58 7.86 15.62 13.08 23.11 1.22 1.85 2.3 3.74 3.36 5.68C392 452 392 452 394 453c.19-.78.37-1.57.56-2.38 3.35-8.43 8.67-15.23 16.82-19.31 6.51-2.36 12.78-2.45 19.62-2.31v-2h3c.99 2.54 1.96 5.08 2.94 7.62.28.72.55 1.43.84 2.17 1.55 4.06 2.68 7.86 3.22 12.21l3-1c.12.31.12.31.7 1.87 3.2 8.32 7.19 15.81 12.3 23.13.43.7.85 1.4 1.29 2.12 2.25 2.47 3.62 2.46 6.9 2.63.45.03.45.03 2.73.17.69.03 1.37.05 2.08.08l1 3q1.11.375 2.25.75c3.77 1.71 6 4.5 7.75 8.25l-1 3 1 2c.44 8.97.44 8.97-2 13-5.52 5.98-11.06 7.96-19.07 8.37-13.1.29-23.24-.38-33.68-9.06-4.03-3.89-7.56-8.08-10.93-12.56-1.63-2.16-3.27-4.3-4.91-6.45-6.51-8.56-12.85-17.09-18.41-26.3-1.16-1.84-2.33-3.67-3.5-5.5l-1.73-2.73-3.66-5.7c-5.2-8.07-5.2-8.07-6.92-11.69C375 434 375 434 373 433c-.11.58-.21 1.15-.32 1.75-1.87 6.19-7.44 11.09-12.06 15.35-7.25 6.76-7.25 6.76-7.81 12.09.06 1.26.13 2.51.19 3.81h2c.31.8.62 1.61.94 2.44C357 471 357 471 358 472c1.85.39 3.7.74 5.56 1.06 1.01.18 2.03.36 3.07.54.78.13 1.56.26 2.37.4v2c.35.09.35.09 2.12.56 4.06 2.03 6.68 4.45 8.88 8.44 1.24 6.25.03 11.51-3 17-3.28 3.84-7.15 4.43-12 5-14.18.82-27.01.35-38.58-8.84a70 70 0 0 1-7.62-7.97c-2.14-2.6-4.43-5.04-6.74-7.5-17.09-18.81-17.09-18.81-17.44-30.44.18-3.43.64-6.23 2.38-9.25l3-2c.69-3.62.69-3.62 1-7h2c1.34 4.02 1.73 8.1.19 12.12-.06.62-.13 1.24-.19 1.88 2.44 2.62 2.44 2.62 5 5v2c.8.27 1.61.54 2.44.81.42.2.42.2 2.56 1.19l1 3c1.93.84 1.93.84 4.31 1.5 4.49 1.32 4.49 1.32 6.69 3.25 3.41 2.13 7.18.93 11 .25v-2h3v-2l1.55-.71c11.7-5.87 20.21-14.91 26.45-26.29.66-1.11 1.32-2.23 2-3.38 1.83-4.8-.53-9.56-2-14.31-.35-1.14-.7-2.27-1.06-3.45C365 410 365 410 364 408c-.07-1.87-.08-3.75-.06-5.62.01-1.01.02-2.01.02-3.04.02-.77.03-1.55.04-2.34"/><path fill="#72522a" d="M308 56h2c1.41 4.68 2.48 9.26 3.3 14.09.23 1.37.47 2.73.7 4.09.13.71.25 1.41.37 2.14 2.5 14.44 5.52 28.6 9.63 42.68.16.57.16.57.98 3.44 1.94 6.25 4.52 12.2 7.14 18.18.18.4.18.4 1.06 2.42.34.74.67 1.48 1.02 2.25.29.67.59 1.33.9 2.02.9 1.69.9 1.69 2.9 3.69-.7 5.89-5.16 10.54-9.62 14.07-2.43 1.7-4.88 3.35-7.38 4.93.34 2.93.57 4.56 2.67 6.7.34.23.34.23 2.08 1.42.72.51 1.43 1.01 2.17 1.53 1.66 1.08 3.36 2.07 5.08 3.04.66.43 1.32.86 2 1.31v3c-6 4.25-10.23 4.4-17.44 3.75-.46-.03-.46-.03-2.79-.2-2.26-.16-4.52-.35-6.77-.55v2c.87-.02 1.74-.05 2.63-.07 1.16-.02 2.31-.04 3.49-.05 1.14-.03 2.28-.05 3.45-.08 3.49.2 6.19.95 9.43 2.2l-1 3c.59.22 1.19.45 1.8.68 2.85 1.71 3.83 3.57 5.45 6.44.52.92 1.04 1.83 1.58 2.76.19.35.19.35 1.17 2.12-.43-5.71-2.84-9.41-6-14 3.66.69 6.52 2.25 9.75 4.06.98.55 1.97 1.1 2.98 1.66.75.42 1.5.85 2.27 1.28l-1 4h-2c-.01.95-.03 1.91-.04 2.89-.44 11.52-.44 11.52-3.34 14.49C336 225 336 225 333 225v2c.56-.16 1.11-.32 1.68-.48 11.17-2.5 20.64 1.42 30.39 6.53 3.22 1.58 6.56 2.75 9.93 3.95v2c-1.46-.31-2.92-.62-4.38-.94-.81-.17-1.62-.35-2.46-.52C366 237 366 237 364 236a79 79 0 0 0-4.62 0c-7.49.08-14.92-.48-22.38-1v-2l-7-1v2c.76.29 1.53.58 2.31.88C335 236 335 236 338 238c1.99.39 3.99.73 6 1v2c-1.65 1.19-1.65 1.19-3.94 2.56-9.77 6.36-15.98 14.66-22.06 24.44-4.62-.55-7.98-2.59-11.81-5.06l-1.81-1.15c-1.47-.92-2.92-1.85-4.38-2.79 1.9-8.51 8.71-14.37 15-20 1.66-1.01 3.33-2.01 5-3l1-2c-6.5 2.24-10.38 4.93-14.59 10.39-.47.53-.93 1.06-1.41 1.61h-2c-.27.72-.54 1.44-.81 2.19-1.19 2.81-1.19 2.81-2.75 5.19-1.75 3.19-2.09 6.02-2.44 9.62l-3 1v-5l-4 1c-1.25-3.75-.14-5.17 1.27-8.7 1.28-4.06 1.12-8.08 1.04-12.3.01-.85.01-1.7.01-2.58-.11-13.32-4.42-21.94-13.69-31.32-2.81-2.25-5.17-3.18-8.63-4.1v-3l11-2v-2c-3.48.76-6.96 1.54-10.44 2.31-.97.22-1.95.43-2.95.65-17.13 3.84-17.13 3.84-21.61 9.04-2.01 1.76-4.05 3.49-6.1 5.22-1.9 1.78-1.9 1.78-3.52 4-.46.59-.91 1.17-1.38 1.78h-2c-.48 2.12-.96 4.24-1.42 6.37-.38 1.71-.76 3.43-1.16 5.14-.94 4.28-1.47 7.98-1.17 12.37.07 2.22.07 2.22-.25 4.12-2.88 2.31-2.88 2.31-6 4-2.28 3.31-2.24 6.25-2.19 10.19.01 1.06.02 2.13.02 3.23C221 265 221 265 222 266c.04 1.67.04 3.33 0 5h-2c-.14.43-.14.43-.84 2.63-1.09 3.18-2.33 6.22-3.66 9.31-1.82 4.32-3.36 8.51-4.5 13.06-3.28-1.64-3.87-5.17-5.12-8.44q-.42-1.035-.84-2.1C203 280.28 203 280.28 203 278h-2l-1 2c-.3-.8-.61-1.6-.92-2.42-7.1-18.62-7.1-18.62-10.83-26.08-1.25-2.5-1.25-2.5-1.75-4.75C186 245 186 245 183 243a80 80 0 0 1-2.5-4.88c-6.44-12.1-16.58-20.23-27.5-28.12-.67-.54-1.33-1.08-2.02-1.64-2.46-1.69-4.91-2.57-7.73-3.55-.98-.34-1.97-.69-2.98-1.04-.75-.25-1.5-.51-2.27-.77v-2c-.85.06-1.69.12-2.56.19-4.05-.22-6.74-1.57-10.44-3.19-4.9-.87-9.71-1.18-14.68-1.32l-2.13-.06-6.63-.18c-1.51-.05-3.02-.09-4.53-.13-3.67-.11-7.35-.21-11.03-.31v2c-1.09.16-2.18.32-3.3.48-9.2 1.43-17.27 3.42-25.7 7.52-1.13.52-2.26 1.03-3.43 1.56-20.31 9.59-39.65 25.86-47.79 47.24-.26.72-.52 1.45-.78 2.2.55-.03.55-.03 3.33-.21 9.6-.43 16.86-.07 24.67 6.21 4.57 4.22 8.18 7.66 9 14l-2-1v-2h-2l1 8h2c1.48 7.13 2.93 14.24 4 21.44 1.72 11.38 3.36 22.01 7.82 32.69C54 339 54 339 54.86 341.92c1.42 3.83 3.47 6.91 5.76 10.27C65 358.6 65 358.6 65 362h-3c-.41-1.03-.82-2.06-1.25-3.12-1.05-2.47-2.12-4.43-3.63-6.69-9.86-14.8-14.02-32.36-16.12-49.81-2.96-24.33-2.96-24.33-9.61-30.99-.52-.38-1.04-.75-1.58-1.14-.46-.37-.46-.37-2.81-2.25v-2c-14.22-3.76-14.22-3.76-21.13-1.54C4 265 4 265 0 265v-17l2-1c.29-.73.57-1.45.87-2.2C6.64 235.46 14.8 227.81 22 221c.54-.58 1.08-1.15 1.63-1.75C25 218 25 218 27 218l.79-1.82c3.51-6.3 11.66-9.66 17.79-12.88C48 202 48 202 51 200c1.2-.33 2.39-.66 3.62-1 1.12-.33 2.23-.66 3.38-1l1-2c1.93-.53 3.86-1.05 5.82-1.49 1.94-.45 3.84-1.04 5.74-1.63 3.61-.92 6.73-1.03 10.44-.88v-2c3.08-.17 6.17-.33 9.25-.5.44-.02.44-.02 2.64-.14.85-.05 1.69-.09 2.56-.14.39-.02.39-.02 2.35-.13 4.63-.19 9.21.05 13.82.35l2.07.12c5.08.32 5.08.32 7.31 1.44 3.24.53 6.49.96 9.74 1.4 3.01.56 5.46 1.38 8.26 2.6.93.29 1.86.58 2.81.88 3.92 1.38 7.52 3.2 11.19 5.12v2c.76.29 1.53.58 2.31.88C158 205 158 205 161 207v2c.44.11.44.11 2.69.69 5.72 2.27 8.25 6.21 11.31 11.31 1.65 1.69 3.31 3.35 5 5 2.7 3.07 4.02 5.1 5 9l3 1c1.18 1.68 1.18 1.68 2.31 3.88.43.8.85 1.61 1.29 2.44.46.88.92 1.77 1.4 2.68 1.06 1.92 2.12 3.83 3.19 5.75 4.87 8.8 4.87 8.8 4.69 13.19.16 3.99 1.91 5.81 4.12 9.06.25 2.88.25 2.88 0 5h2l1 6h4c.13-.54.13-.54.81-3.25 1.19-3.75 1.19-3.75 2.75-5.63 2.26-3.33 2.41-7.15 2.44-11.12l-1-1c-.75-7.68 2.51-14.01 7-20h1c.01-.86.03-1.72.04-2.61.37-9.2 2.17-15.96 5.96-24.39h2c.26-.57.52-1.15.79-1.74 1.3-2.43 2.78-4.31 4.59-6.38.58-.69 1.17-1.37 1.77-2.08 1.87-1.82 3.53-2.65 5.85-3.8l2-3c2.43-1.13 2.43-1.13 5.31-2.12.47-.17.47-.17 2.87-1.01 2.82-.87 2.82-.87 5.4-1.39 2.42-.48 4.55-1.23 6.86-2.1 3.87-1.35 6.53-1.52 10.56-.38v-2c.78-.06 1.56-.12 2.37-.18 1.01-.09 2.02-.17 3.07-.26 1.01-.08 2.02-.16 3.06-.24C290 189 290 189 291 188c3.61-.38 7.25-.47 10.88-.62 1.01-.06 2.03-.11 3.08-.16.98-.05 1.96-.09 2.97-.13.45-.02.45-.02 2.73-.13C313 187 313 187 316 188l2-1c2.04-.07 4.08-.08 6.12-.06 1.1.01 2.2.02 3.33.02.42.01.42.01 2.55.04-.36-1.94-.36-1.94-1-4-1.66-.69-3.33-1.35-5-2-2.75-2.56-2.75-2.56-5-5l-1-1c-.38-2.75-.38-2.75 0-6 2.17-2.57 3.98-4.49 7-6l2 1c.11-.36.11-.36.69-2.19 1.56-3.34 3.61-5.33 6.31-7.81-1.55-5.06-3.16-9.5-6-14-2.25-4.78-3.84-9.57-5.31-14.65-.55-1.86-1.17-3.71-1.81-5.54-.88-2.81-.88-2.81-1.32-6.25-.51-3.24-1.46-5.62-2.77-8.6-1.36-3.39-2.16-6.9-2.98-10.46-.17-.72-.35-1.44-.53-2.18-1.07-4.55-1.31-8.63-1.28-13.32-.62-2.67-.62-2.67-1.44-5.19-1.74-5.9-2.25-11.68-2.56-17.81m-99 230v5h2c-.16-.82-.16-.82-1-5z"/><path fill="#f5f2e6" d="M291.5 424.813c4.1 1.95 6.32 5.28 8.5 9.19.85 4.09-.07 6.28-2 9.81-2.38 4.53-3.03 8.14-2 13.19 3.26 8.97 8.83 15.85 15 23 2.58 3.21 3.83 6.02 5 10l-4 2h5l1-2c.12.64.25 1.28.38 1.93.2.69.41 1.37.62 2.07l2 1c-1.31 0-2.61-.01-3.96-.01-12.37-.02-24.74-.03-37.12-.04l-19.07-.03c-6.15-.01-12.3-.01-18.44-.02-2.34 0-4.67 0-7.01-.01-11.2-.02-22.34-.03-33.51.88-3.96.31-7.86.33-11.83.29-.69 0-1.39-.01-2.1-.01-1.66-.02-3.31-.03-4.96-.05-1.99-7.73-3.47-15.24.35-22.61 4.96-7.48 11.19-14.05 19.65-17.39 3.43-.45 6.85-.51 10.31-.57 6.14-.11 11.83-.47 17.8-2 2.33-.53 4.51-.59 6.89-.43v-2l2.48-.55c1.08-.25 2.16-.51 3.27-.76.53-.13.53-.13 3.23-.74 2.97-.94 4.65-2 7.02-3.95q1.11-.405 2.25-.81c3.34-1.45 5.89-3.45 8.75-5.67 1.76-1.34 3.53-2.57 5.38-3.77 2.62-1.75 2.62-1.75 4.62-3.75 1.73-.75 1.73-.75 3.75-1.44 2.69-.95 4.91-1.93 7.44-3.31 2.81-1.25 2.81-1.25 5.31-1.44"/><path fill="#3e311b" d="M281 194v2l-11 3 1 2c.89.27 1.79.53 2.71.81 6.59 2.39 12.19 8.81 15.85 14.71 5.1 11.01 5.46 27.17 1.94 38.73-.47 1.26-.96 2.52-1.5 3.75l4-1q0 2.94-.06 5.88c.06 3.12.06 3.12.67 5.49.47 3.19-.12 4.89-1.3 7.88-.37.95-.74 1.91-1.12 2.89-1.94 4.68-3.92 9.33-6.19 13.86h-2l1-8-2-1c1-3 1-3 4-5 1.67-5.18 2.23-9.59 2-15-1.42.45-2.83.91-4.25 1.38-.79.25-1.58.51-2.39.77-2.36.85-2.36.85-4.41 1.91-3.45 1.66-7.19 1.68-10.95 1.94-.5.06-.5.06-3.02.34-11.52.79-18.91-4.87-27.54-11.9-3.39-3.11-5.42-6.32-7.44-10.44-2.57.94-3.8 1.69-5.31 4-1.08 4.68-1.38 8.43.31 13 2.69 3.18 5.52 5.9 8.63 8.65.78.78 1.56 1.55 2.37 2.35v3c-3.6-.55-4.93-1.71-7.12-4.56-1.51-1.94-1.51-1.94-2.88-3.44h-2c-.6 1.13-1.2 2.27-1.81 3.44-.34.64-.68 1.27-1.02 1.93-3.12 7.02-4.7 13.53-5.05 21.19-.02.4-.02.4-.17 2.42-.34 6.5.59 12.04 4.81 17.16 8.95 7.2 16.52 11.81 28.05 12.98.4.05.4.05 2.39.27 1.93.21 3.87.41 5.8.61v2c-16.89.55-16.89.55-24-3-.82-.39-1.65-.78-2.5-1.19-.5-.27-.99-.53-1.5-.81v2c-1.45 1.2-2.89 2.39-4.36 3.57-2.6 2.26-4.59 4.94-6.58 7.74-.42.6-.85 1.2-1.29 1.82-4.68 6.82-7.72 14.22-10.77 21.87-.53 1.25-1.06 2.49-1.6 3.74-1 2.33-1.96 4.64-2.84 7.01-.25.67-.5 1.33-.76 2.02-.58 1.61-1.13 3.24-1.67 4.87-3.09 9.16-8 17.68-15.13 24.36h-2l-1 3c-3.42 1.8-6.17 2.22-10 2 1.77-1.97 3.43-3.27 5.69-4.69 4.63-2.99 9.82-7.34 12.31-12.31h2v-5c-.77.33-1.55.65-2.34.99-3.22 1.35-6.44 2.68-9.66 4.01-.73.31-1.47.61-2.23.93-9 3.59-17.95 4.41-27.58 4.32l-3.22-.03c-20.11-.29-39.74-6.02-55.97-18.22-3.7-2.73-7.2-5.29-11.44-7.12-4.67-2.11-7.49-5.9-10.56-9.88-.54-.66-1.08-1.32-1.64-2-1.36-2-1.36-2-1.81-3.87-.82-3.16-2.59-5.52-4.36-8.25-3.44-5.45-6.14-10.78-8.19-16.88-.34-.97-.67-1.94-1.02-2.95-3.93-11.99-5.76-24.36-7.67-36.8-.13-.86-.26-1.72-.4-2.6-.12-.81-.24-1.61-.36-2.45-.11-.71-.21-1.43-.32-2.16C41 286 41 286 41 282h-2l-1-8c2 0 2 0 4.02 1.79 2.88 4.67 3.16 9.25 3.73 14.65.13 1.02.25 2.05.38 3.1.57 4.84 1.04 9.58.87 14.46h2c1.61 5.05 3.06 10.03 4 15.25.75 4.02 2.07 7.13 4 10.75.28 1.06.56 2.11.85 3.2 4.01 13.25 13.34 26.33 24.51 34.53.54.42 1.08.84 1.64 1.27v2c.76.29 1.53.58 2.31.88C89 377 89 377 92 379v2c.7.27 1.4.54 2.12.81 8.22 3.4 8.22 3.4 10.08 5.63 2.77 2.4 6.08 3.14 9.55 4.12.38.11.38.11 2.31.66 17.05 4.65 38.46 7.05 55.57 1.53 2.77-.88 5.51-1.32 8.37-1.75l1-3c2.97-1.62 6.02-2.94 9.12-4.3 4.81-2.83 6.1-6.91 7.82-12.01 1.23-3.51 2.54-6.83 4.25-10.13 1.39-2.73 2.18-4.66 2.81-7.56h2c.1-.7.21-1.4.31-2.12 1.33-5.54 4.32-10.01 7.63-14.57.67-.93 1.34-1.86 2.02-2.82 1.87-2.28 3.6-3.86 6.04-5.49-1.35-2.93-2.89-5.25-5-7.69-.26-.3-.26-.3-1.56-1.82C215 319 215 319 213 318c-1.83-3.34-2.14-6.34-2.38-10.06-.36-4.54-1.3-5.82-4.62-8.94-.67-2.24-1.08-4.47-1.5-6.76-.5-2.24-.5-2.24-2.12-5.43-1.56-3.18-1.63-5.32-1.38-8.81h2c2.55 5.6 4.9 11.22 7 17h1c.11-.54.11-.54.69-3.25 1.79-7.22 4.91-14.15 8.31-20.75h2c-.33-.74-.66-1.49-1-2.25-1.51-5.66-2.33-12.17-.24-17.79 1.92-3.07 4.03-4.49 7.24-5.96-.06-1.2-.12-2.39-.19-3.62-.01-8.27 1.91-16.8 5.19-24.38h2c.26-.59.52-1.17.79-1.77 2.95-5.45 7.42-9.19 13.21-11.23l1-3c1.96-.88 1.96-.88 4.52-1.57.92-.26 1.84-.51 2.79-.78.97-.25 1.94-.51 2.94-.77.96-.27 1.91-.53 2.89-.81 11.85-3.24 11.85-3.24 17.86-3.07"/><path fill="#f8e2b5" d="M102.125 196.75h2.07c6.71.02 13.17.2 19.81 1.25v2h-2c.16.33.16.33 1 2 .98.33 1.98.66 3 1v2l-2.56.15c-1.1.07-2.19.15-3.32.22-.55.04-.55.04-3.3.22-2.82.41-2.82.41-4.82 2.41-1.62.2-3.24.4-4.85.58-4.26.83-8.19 2.71-12.15 4.42.72.7 1.44 1.4 2.18 2.13 2.81 2.8 5.31 5.79 7.82 8.87-.5 1.94-.5 1.94-2 4-2.7.69-5.21.82-8 1v2c-1.12.12-2.23.25-3.38.37-3.62.63-3.62.63-5.62 2.63-2.33.69-4.67 1.35-7 2-1.36.62-2.7 1.27-4 2 1.12 3.39 1.53 3.54 4.43 5.25 3.93 2.66 4.65 5.07 5.57 9.75.37.91.74 1.81 1.12 2.75.88 2.25.88 2.25.88 5.25h-21c.65 1.65 1.31 3.3 2 5 2.43 9.62 4.46 20.06 4 30h-2l-2-3-1.88-.37c-3.13-.92-4.21-3.08-6.12-5.63-.33-.16-.33-.16-2-1 .32.68.65 1.36 1 2.06 1.17 3.45 1.14 6.32 1 9.94h-4v9h-2v-3h-2v-3l-5-1v-6h-2c-.09-.97-.18-1.93-.27-2.93-1.09-10.17-2.92-19.63-10.98-26.76-9.09-6.79-17.77-7.17-28.75-7.31 4.49-16.27 15.36-27.97 28.5-38.19.53-.41 1.06-.83 1.61-1.26 7.34-5.59 15.59-9.57 23.89-13.55.79-.39 1.58-.77 2.39-1.17 13.02-5.79 26.75-6.1 40.73-6.08"/><path fill="#916936" d="M227 248c3 1 3 1 4.69 4.12 4.51 8.29 13.76 14.38 22.31 17.88 4.43.63 8.56.43 13 0 .8-.02 1.61-.05 2.43-.07 5.71-.3 10.14-2.37 15.19-4.97C287 264 287 264 290 265c.44 6.85-.63 13.22-5.19 18.56-.6.48-1.19.95-1.81 1.44.5.17.5.17 3 1l-2 8h2c.17-.53.34-1.07.52-1.62 1.67-5.16 3.56-10.19 5.61-15.22.68-1.7 1.29-3.42 1.87-5.16h2c.06-.37.06-.37.38-2.25.57-2.55 1.36-4.48 2.62-6.75h3v2c.7.08 1.4.17 2.12.25 3.53.92 5.94 2.63 8.88 4.75-.14 1.75-.29 3.5-.44 5.25l-.24 2.95c-.27 2.36-.67 4.52-1.32 6.8h-2v3.69c-.93 8.37-6.51 16.46-12.69 22-5.43 4.07-9.66 4.54-16.31 4.31.48-7.25 2.29-13.27 5-20-3.38 2.25-3.75 3.25-5.12 6.94-.34.87-.67 1.75-1.01 2.65-.65 1.79-1.27 3.6-1.87 5.41h-2c-.1.54-.21 1.07-.31 1.62-1.36 4.7-3.72 8.55-6.69 12.38-.41.87-.82 1.73-1.25 2.62-2.36 3.2-4.98 3.74-8.75 4.38-2.86.11-5.65-.08-8.5-.31l-2.18-.15c-2.11-.15-4.22-.34-6.32-.54-.61-.06-.61-.06-3.69-.35-8.13-1.59-14.67-7.43-19.97-13.56-3.56-5.55-3.64-10.79-3.28-17.15.05-.84.09-1.67.14-2.53.7-9.49 3.77-17.32 8.8-25.41 3.36 1.44 5.59 3.25 8 6v2l4 1c-2.08-3.84-4.34-6.33-7.62-9.19-4.1-4-5.59-6.79-5.67-12.51.55-4.36 2.23-7.24 5.29-10.3"/><path fill="#3d9c95" d="M347 205c4.65.34 8.4 1.03 12.69 2.88 5.91 2.52 12.03 3.82 18.31 5.12v-2l4 1h-3v2c4.29 1.53 8.46 2.52 12.94 3.31 6.78 1.27 13.13 3.23 19.63 5.51 2.86.98 5.69 1.8 8.62 2.56 5.18 1.49 9.44 4.27 14.01 7.07 2.41 1.33 4.07 2.03 6.74 2.49 5.36.97 9.79 4.38 14.3 7.28 3.23 2.09 4.97 2.95 8.76 3.03.35.01.35.01 2.12.08.62-.11 1.24-.22 1.88-.33l2-3-4 1c0-3 0-3 2.19-5.38.93-.86 1.85-1.73 2.81-2.62l2.44-2.56c2.71-2.59 5.28-4.62 8.56-6.44 3.44.1 4.71 1.62 7 4 .82.47 1.65.95 2.5 1.44 2.62 1.64 4.02 2.85 5.5 5.56-1.18 7.51-7.49 15.08-13 20-3.57 1.96-6.89 3-11 3v2l8-2c0 4 0 4-1.69 6.15-2.41 2.32-4.83 4.61-7.31 6.85-.68.63-1.36 1.27-2.06 1.92l-1.94 1.64c-.56.48-1.11.95-1.69 1.44-6.66 2.87-13.62.65-20.06-1.81-.36-.13-.36-.13-2.21-.79-3.97-1.46-7.42-3.18-11.04-5.4-1.92-.77-3.86-1.5-5.81-2.19-.49-.17-.49-.17-2.96-1.04-.37-.13-.37-.13-2.23-.77v-2c-.55-.11-1.1-.22-1.66-.34-9.76-2.75-18.88-9.23-27.34-14.66-1.04-.67-2.08-1.33-3.15-2.02-2.47-1.72-4.51-3.4-6.6-5.54l-1.73-1.76C380 238 380 238 378 235c-1.95-.5-3.91-.98-5.88-1.41-2.62-.73-4.7-2.09-7.01-3.51-6.73-3.45-14.59-5.38-22.11-6.08.57-2.87.86-3.86 3-6-.11-2.57-.52-5.04-.91-7.59C345 208 345 208 347 205"/><path fill="#e07622" d="m211 368 3 3-2 2c.16.33.16.33 1 2 .97.12 1.94.25 2.94.38 1.01.2 2.02.41 3.06.62 1.25 2 1.25 2 2 4l2 1v3l3-1c0 3 0 3-1 6 3.88-1.75 3.88-1.75 5-4 2.03-.87 4.09-1.53 6.19-2.22C238 382 238 382 239 380h2v4l7 2c-.01.69-.02 1.37-.04 2.08 0 .9-.01 1.8-.02 2.73-.01.9-.03 1.79-.04 2.71.1 2.48.1 2.48 1.1 5.48l-5-1v-8l-2-1v7h-3l-1 4-10-1 2 3c1.95.29 1.95.29 4.12.19 1.28-.06 2.56-.13 3.88-.19l1 3h-5c2.62 3.88 2.62 3.88 6 5v2h2l-1 3h-4c-.05 1.42-.09 2.83-.12 4.25-.03.79-.05 1.58-.08 2.39.22 2.58 1 4.1 2.2 6.36-.38 2.06-.38 2.06-1 4v3c.45-.5.91-.99 1.38-1.5C241 432 241 432 243 432c2 3 2 3 1.62 5.19-.1.3-.1.3-.62 1.81-.66-.16-.66-.16-4-1l2 2v3l5 1c-8.24 5.5-18.24 6.75-27.9 7.77-2.27.25-4.54.52-6.81.79-1.6.19-3.19.38-4.79.56-.74.09-1.48.18-2.25.27-12.93 1.45-12.93 1.45-17.5-1.7-.64-.43-1.29-.86-1.95-1.3-1.81-1.39-3.38-2.61-4.8-4.39v-4h-2c-.51-1.58-1.01-3.17-1.5-4.75-.28-.88-.56-1.76-.84-2.67C176 432 176 432 176 428h-2q-.075-3.69-.12-7.38l-.06-2.11c-.01-1.84.08-3.68.18-5.51 2-2 2-2 3.9-2.38 2.82-.83 3.82-2.24 5.66-4.5 3.35-4.04 3.35-4.04 4.98-5.55 7.02-7.54 10.03-19.99 13.46-29.57h3c2.93-.53 3.83-.83 6-3"/><path fill="#ebd5a8" d="M418 268c1.4.26 2.79.53 4.19.81.77.15 1.55.3 2.35.46 2.46.73 2.46.73 4.77 2.15 4.53 2.66 9.48 4.1 14.44 5.77 1.05.37 2.09.73 3.17 1.11 12.16 4.1 12.16 4.1 18.08 2.7 2.72-1.49 4.84-3.36 7.06-5.5.58-.52 1.16-1.05 1.76-1.59 1.41-1.28 2.8-2.59 4.18-3.91 2 1 2 1 3.29 4.73.46 1.63.9 3.26 1.33 4.89.12.43.12.43.69 2.58 1.92 7.73 2.22 14.87 1.69 22.8h-3l-2.93-5.37C478 298 478 298 476 297c.03.94.07 1.89.11 2.86.29 13.75-1.69 26.45-11.11 37.14-2.76.36-2.76.36-5 0-.1.57-.19 1.13-.29 1.71-.87 2.82-2.24 4.56-4.09 6.85-.6.77-1.21 1.53-1.83 2.32-3 3.56-3 3.56-4.79 5.12h-2c.57-3.87 2.39-6.15 5-9h2c.06-.44.06-.44.38-2.69.56-3.01 1.39-5.51 2.62-8.31h-3c-.08.68-.17 1.36-.25 2.06-1.62 6.36-5.5 11.11-9.75 15.94-5.33-.49-9.27-3.35-13.69-6.12-.8-.5-1.59-1-2.42-1.51-16.91-10.59-16.91-10.59-18.89-15.37.36-.46.73-.93 1.1-1.41 9.84-13.52 13.14-28.2 10.58-44.65-.55-2.86-1.24-5.66-2.02-8.47C418 271 418 271 418 268"/><path fill="#f5e2b6" d="M323 29c10.74 1.9 21.15 11.07 29 18 .85.73 1.71 1.46 2.59 2.22 10.25 8.96 26.43 23.24 27.72 37.75-.52 3.37-2.63 4.86-5.13 7.02-3.51 3.24-6.26 7.08-9.16 10.85-.67.71-1.33 1.43-2.02 2.16-3.11 0-4.35-.54-7-2v-2h-3v3h2c1.37 1.29 2.71 2.62 4 4-1.46 2.97-3.01 5.86-4.62 8.75l-1.36 2.42c-.17.3-.17.3-1.02 1.83h-2l-2 5c-5.22-.98-7.81-3.9-11-8-4.79-7.54-8.47-15.44-11-24l-.97-1.76c-1.45-3.16-1.98-6.46-2.59-9.86-1.32-7.14-1.32-7.14-2.44-9.38-1.98-9.47-2.21-18.98-2.25-28.62l-.03-3.45c.01-1.09.01-2.17.01-3.28.01-.97.01-1.94.01-2.93.28-2.9 1.05-5.08 2.26-7.72"/><path fill="#bd5b19" d="m361 396 3 1c.03.68.05 1.36.08 2.05.43 7.04 2.05 12.55 4.92 18.95 2.21 5.48 2.18 9.09-.06 14.61-6.31 11.82-15.53 21.36-26.94 28.39h-3v2h-3v2c-7.48 2.51-7.48 2.51-10.95 1.35-1.74-1.04-3.39-2.18-5.05-3.35-1.05-.5-2.1-.99-3.19-1.5-2.9-1.55-4.6-3.08-6.81-5.5l-2.56-2.56L305 451c-.62-.52-1.24-1.03-1.88-1.56-.37-.48-.74-.95-1.12-1.44.25-2 .25-2 1-4 1.21-3.62 1.32-6.19 1-10-1.75-3.1-3.49-5.49-6-8v-4c3.41-1.22 6.77-2.2 10.31-2.94 3.97-.84 7.73-2 11.55-3.34 1.99-.67 3.98-1.21 6.02-1.72 3.12-1 3.12-1 4.52-2.43 1.95-1.92 3.77-2.69 6.29-3.76 5.04-2.21 9.96-4.59 14.87-7.06.71-.35 1.41-.71 2.13-1.07 1.77-.89 3.54-1.79 5.31-2.68z"/><path fill="#337b72" d="M276 206c5.95 4.07 8.94 7.82 10.46 14.89.54 2.11.54 2.11 2.16 5.55 2.93 7.5 2.82 18.71.07 26.25-.56 1.09-1.12 2.18-1.69 3.31a682 682 0 0 1-1.44 3.31c-2.49 4.3-4.58 5.38-9.31 6.88-1.07.27-2.14.53-3.25.81 0-3.7 1.17-5.12 3-8.31 3.05-6.41 3.61-12 3.62-19.07.02-.93.03-1.87.04-2.84-.13-6.09-1.12-9.8-4.66-14.78-5.64-5.1-9.76-5.65-17.3-5.6-6.31 1.02-9.91 4.63-13.7 9.6-1.47 2.73-2.23 4.97-3 8h2c.04-.27.04-.27.25-1.62 1.55-4.92 4.79-9.23 8.86-12.4 4.7-2.44 10.14-2.64 15.24-1.42 4.85 2.03 6.92 4.77 8.96 9.54 2.63 7.24 3.15 16.96.44 24.34-.58 1.17-1.15 2.35-1.75 3.56-.3.7-.6 1.39-.91 2.11-1.96 4.36-3.74 7.57-8.09 9.89-7.81 1.83-14.49-1.99-21-6-2.36-1.79-2.91-2.55-3.51-5.48-.06-.89-.12-1.79-.18-2.71-.03-.45-.03-.45-.2-2.73-.03-.69-.07-1.37-.11-2.08h-2v7c-4.12-1.37-5.01-3.33-6.98-7.08-3.05-8.71-1.7-18.29 1.86-26.63 3.91-7.99 9.82-13.64 17.37-18.29 8.45-2.25 16.93-1.98 24.75 2"/><path fill="#c8661d" d="M401.313 386.25c.98.29 1.96.57 2.97.87 15.55 4.71 15.55 4.71 20.72 9.88.43 2.01.77 4.03 1.06 6.06.84 5.84.84 5.84 1.94 6.94.37 1.87.7 3.74 1 5.63.08.51.08.51.5 3.1.52 3.42 1.01 6.84 1.5 10.27-1.06.1-2.13.2-3.22.3-10.04 1.02-18.2 2.32-25.78 9.7-3.16 4.4-5.68 9.11-8 14-3.47-1.16-3.73-1.73-5.53-4.75-.46-.78-.92-1.55-1.4-2.35-.48-.81-.96-1.62-1.45-2.46-.94-1.59-1.89-3.17-2.83-4.76-.47-.78-.93-1.56-1.4-2.36-1.74-2.91-3.55-5.77-5.37-8.63-1.99-3.28-3.02-5.85-3.02-9.69h-2c-.85-2.87-1.68-5.75-2.5-8.63l-.73-2.44c-2.53-8.92-2.53-8.92-1.77-12.93 2.45-2.45 2.45-2.45 5.69-4.69.52-.37.52-.37 3.19-2.26.52-.34.52-.34 3.12-2.05.81-.6 1.62-1.21 2.45-1.83 6.27-2.88 14.58 1.16 20.86 3.08"/><path fill="#e2822e" d="M460.813 135c3.86 3.53 6.83 7.64 7.62 12.88-.43 2.12-.43 2.12-2.43 4.12-2-.19-2-.19-4-1-2.43-3.64-2.16-5.71-2-10l-4 2-1-4h-4c-.82 4.39-1.25 8.66-1.38 13.12-.05 1.2-.1 2.4-.15 3.64.53 3.24.53 3.24 2.93 5.5.86.58 1.71 1.15 2.6 1.74.64.89 1.28 1.77 1.93 2.69 2.58 2.89 4.28 3.05 8.07 3.31v2l6-2c.14.62.29 1.24.43 1.88.57 2.12.57 2.12 1.57 4.12 2.55.31 5 .51 7.56.62l2.15.12c1.76.1 3.53.18 5.29.26v-2c-.99.16-.99.16-6 1v-2h2v-2l-5 2-2-6 5 1v-9c2.17.51 4 1 6 2l-4-6 1-2h2v-2l3 1c-.1.3-.1.3-.57 1.81-.43 2.19-.43 2.19.57 5.19h4c-.02-.74-.04-1.49-.07-2.25.06-2.47.42-4.39 1.07-6.75v-2c5.75-1 5.75-1 8-1l1-2c1.33 1.27 2.67 2.54 4 3.81 4.61 2.75 10.79 2.34 16.02 2.51a5500 5500 0 0 0 7.91.24c1.37.05 2.74.09 4.1.13 3.32.11 6.65.21 9.97.31v2c-2.51 1.77-5.1 3.35-7.72 4.95-2.87 2.57-3.03 4.29-3.28 8.05-15.9 5.77-31.01 11.11-48.11 11.2-.85.01-1.7.01-2.57.02-1.79.01-3.57.02-5.36.02-2.69.01-5.39.04-8.08.07-9.37.06-17.9-.27-26.88-3.31.33-.16.33-.16 2-1v-2c-.91-.21-1.82-.41-2.75-.62-4.08-1.73-5.24-3.5-7.25-7.38v-4h-2c-.31-8.77.25-14.8 6.37-21.45 5.68-5.4 13.21-6.12 20.44-3.55"/><path fill="#ddb881" d="M364.352 375.02c2.17.8 4.3 1.5 6.52 2.11 2.82.78 5.44 1.73 8.13 2.87v3c-.91.44-1.81.87-2.75 1.32-6.5 3.17-12.69 6.37-18.58 10.61-1.67 1.07-1.67 1.07-3.67 1.07v2c-.57.22-1.14.44-1.73.66-6.23 2.44-12.27 5.17-18.29 8.07-2.7 1.15-5.09 1.83-7.98 2.27v2c-.85.25-1.69.51-2.56.77-10.38 3.15-10.38 3.15-14.69 4.92-4.28 1.5-8.25 2.01-12.75 2.31 1.27-3.8 2.64-4 6-6 1.03-1.31 2.04-2.64 3-4-.68.44-1.36.87-2.06 1.32-4.81 3.08-9.63 6.14-14.5 9.12-.81.49-1.62.99-2.45 1.49-1.99 1.07-1.99 1.07-3.99 1.07 9.5-19.6 26.82-36.84 47.62-44.19.9-.32 1.8-.64 2.73-.98 2.54-.79 5.03-1.36 7.65-1.83v-2c9.22-2.53 15.48-1.35 24.35 2.02"/><path fill="#f2eee3" d="M373 433c3 1 3 1 4.22 2.91.21.42.21.42 1.28 2.59 3.89 7.43 8.47 14.36 13.09 21.36 1.34 2.03 2.67 4.07 3.99 6.11 5.92 9.05 12.18 17.79 19.14 26.08C416 494 416 494 417 499h-25v-2c-.71.01-1.42.02-2.15.04-.92 0-1.84.01-2.79.02-.91.01-1.83.03-2.77.04C382 497 382 497 381 496q-.405-2.595-.75-5.19c-.96-5.47-2.2-8.04-6.25-11.81a141 141 0 0 0-5-3v-2c-.76-.04-1.52-.07-2.3-.11-.99-.07-1.99-.13-3.01-.2l-2.99-.18c-2.7-.51-2.7-.51-4.56-1.8C355 470 355 470 355 466h-2c-.54-3.93-.96-7.49 1.23-10.94 1.74-1.84 3.55-3.52 5.46-5.18 11.02-10.02 11.02-10.02 13.31-16.88"/><path fill="#f8e7c0" d="M424 275c4.06.62 6.81 2.73 10.12 5.06.58.4 1.15.8 1.73 1.21 4.55 3.2 8.79 6.69 12.93 10.39 2.22 1.34 2.22 1.34 4.86 1.09.78-.25 1.56-.5 2.36-.75.76-.19 1.53-.37 2.31-.56.56-.15 1.12-.29 1.69-.44v-2l3.38-.88C467 287 467 287 469 285c1.88 0 1.88 0 4 1 2.25 2.96 3.82 5.47 5 9-.33.17-.33.17-2 1-.17.5-.17.5-1 3l-3-1v-2h-2c.17.29.17.29 1 1.75 1 2.25 1 2.25 1 6.25h3v4h-2l1 3c.92 9.14-2.37 16.84-8 24h-2c-4.59-8.26-4.59-8.26-4-13h-2l-2 5h-2c-3-3.46-3-3.46-3-6-1.05.64-2.1 1.28-3.19 1.94-2.92 1.68-5.43 2.65-8.81 3.06v2c.39.03.39.03 2.38.19 2.62.81 2.62.81 4.06 3.19.18.86.37 1.73.56 2.62l-2 3c.45-.5.91-.99 1.38-1.5C447 334 447 334 449 334l-1 6c-4.75 1.12-4.75 1.12-7 0-.63-1.85-.63-1.85-1.12-4.06-.17-.74-.34-1.47-.51-2.23-.12-.56-.25-1.13-.37-1.71l-4-1 1-3h2l-1-2-3-1 1-3 4 1-1-4h3v-2c-.72.25-1.44.5-2.19.75-2.81.25-2.81.25-5.53-1.16-2.28-2.59-2.28-2.59-2.49-4.61.17-2.44.5-4.81.9-7.23.12-.84.23-1.68.35-2.55.3-2.07.63-4.13.96-6.2h2c-.17-.82-.17-.82-1-5l-3 1c-1.19 2.56-1.19 2.56-2 5h-4v5h-2l-1-23h2z"/><path fill="#634823" d="M227 248c3 1 3 1 4.69 4.12 4.51 8.29 13.76 14.38 22.31 17.88 4.43.63 8.56.43 13 0 .8-.02 1.61-.05 2.43-.07 5.71-.3 10.14-2.37 15.19-4.97C287 264 287 264 290 265c.44 6.85-.63 13.22-5.19 18.56-.6.48-1.19.95-1.81 1.44.5.17.5.17 3 1l-1 5c-.16-.66-.16-.66-1-4-.56.25-.56.25-3.38 1.5-7.54 2.59-15.76 1.73-23.62 1.5l-3 6h-2c.16-1.65.16-1.65 1-10h-5c-1.67-.99-3.34-1.99-5-3-3 1-3 1-4.17 2.82-2.13 4.82-3.86 8.83-2.83 14.18 1.83 2.39 3.35 3.37 6 5 2.65-.2 3.66-.61 5.41-2.63.4-.64.8-1.28 1.21-1.93 1.23-1.94 1.23-1.94 2.38-3.44h2c-.43 4.92-2.43 7.66-6 11-3.38.75-3.38.75-7 0-3.26-2.14-6.24-4.48-8-8a79 79 0 0 1-.06-4.62c.01-.82.02-1.64.02-2.48.02-.63.03-1.25.04-1.9-1.11-.45-2.23-.91-3.38-1.38C225 288 225 288 223 286c-2.5-.31-2.5-.31-5 0l-2 3c1.02-6.52 3.38-12.49 7-18 3.36 1.44 5.59 3.25 8 6v2l4 1c-2.08-3.84-4.34-6.33-7.62-9.19-4.1-4-5.59-6.79-5.67-12.51.55-4.36 2.23-7.24 5.29-10.3"/><path fill="#df751f" d="m497 124 4 2v9l1-7h1c.02.4.02.4.11 2.41.37 5.95.85 10.34 3.89 15.59l-1 2-2-1-2 2c-.5-.16-.5-.16-3-1h-4c.21.7.41 1.4.62 2.12.46 3.48-.34 5.65-1.62 8.88h-4c-1.06-1.81-1.06-1.81-2-4 .17-.5.17-.5 1-3l-2-1v2h-2c.63 2.93 1.59 5.36 3 8-.99-.16-.99-.16-6-1 .19.95.37 1.9.56 2.88C483 166 483 166 482 168c-2.06.62-2.06.62-4 1l2 3c.66-.16.66-.16 4-1v2h-2v2c.99-.16.99-.16 6-1v2c-4.34 1.14-8.39.93-12.81.56-.7-.05-1.39-.1-2.1-.16-1.7-.12-3.39-.26-5.09-.4l4-2-3-4c-.66.16-.66.16-4 1v-2c-.42.08-.42.08-2.56.5-4.7-.68-6-2.93-8.83-6.55C452 161 452 161 449 159c-.36-3.05-.36-3.05-.31-6.75 0-1.21.01-2.42.01-3.67.29-3.51 1.04-6.31 2.3-9.58h4c.33.5.33.5 2 3l3-1 2 9 4 1c1-1 1-1 1.24-3.27-.28-3.25-1.21-4.81-3.05-7.48-.52-.78-1.05-1.56-1.58-2.36-2.04-2.39-3.74-2.78-6.81-3.16-6.63-.27-10.71.98-15.8 5.27-4.9 5.03-5.14 9.5-5.06 16.31.01 1.07.02 2.14.02 3.24.02.81.03 1.62.04 2.45-3-1-3-1-4.19-3.06-1.87-6.76-1.04-11.71 1.99-17.9 3.02-5.13 7.47-8.63 13.01-10.73 6.71-.96 10.72-.76 16.3 3.14 5.76 4.73 8.66 9.48 10.89 16.55l2-6h2v-3c.63-2.01 1.29-4.01 2-6h-2v-2h3v2c3 0 3 0 4.69-1.5.43-.5.86-.99 1.31-1.5l2.25 2c2.75 2 2.75 2 6.75 2 .34-1.62.67-3.25 1-4.88.09-.45.09-.45.56-2.74.44-2.38.44-2.38.44-4.38"/><path fill="#df7927" d="M449.688 110.938c.59 0 .59 0 3.57.03l2.74.03v2c.59.11 1.18.22 1.78.34 5.16 1.54 8.99 5.88 11.66 10.41 1.56 3.25 1.56 3.25 1.56 5.25h2c-.16-1.11-.33-2.22-.5-3.37-.5-3.63-.5-3.63-.5-5.63h4v10h2c-.16-.82-.16-.82-1-5l4-1v-2l4-2 4 5c-.8.41-1.61.83-2.43 1.25-2.57 1.75-2.57 1.75-3.38 3.94-.03.3-.03.3-.19 1.81l2 1c-.33.5-.33.5-2 3-.49-.16-.49-.16-3-1v-2h-3v2h2l-2 6 2 1-2 3h-2l-1 15h-1c-.08-.92-.17-1.83-.26-2.78-1.07-9.33-2.64-15.8-9.8-22.09-5.08-3.68-8.57-4.87-14.94-4.13-5.56 1.31-9.42 3.43-13 8-2.47 4.36-4.1 8.5-4.62 13.5-.13 1.16-.25 2.31-.38 3.5-.33.17-.33.17-2 1-.05-1.93-.09-3.87-.12-5.81-.03-1.08-.05-2.16-.07-3.27.19-2.92.19-2.92 2.19-5.92l-4 4-4-2v-2h2c-3.25-3.62-5.16-5.36-10-6l-3-2 1 4-2 1 3 3 2-3h4v3l-2 1-1 3c-1.15.17-1.15.17-7 1-.19-.62-.38-1.25-.58-1.9-.26-.81-.52-1.63-.79-2.47-.26-.81-.51-1.63-.78-2.46-.85-2.17-.85-2.17-2.85-4.17 0-2.81.43-4.41 2.41-6.44 1.49-1.23 3.04-2.4 4.59-3.56l-2-7c2.35.76 3.71 1.49 4.95 3.66.3.63.61 1.26.93 1.9.97 1.89.97 1.89 2.12 3.44 3.25.94 3.25.94 6 1v-2c-.32-.05-.32-.05-1.93-.31-.35-.11-.35-.11-2.07-.69l-1-3h10c3-1 3-1 4.88-3.81 4.54-6.82 8.88-8.33 16.81-8.25"/><path fill="#6d6658" d="M308 56h2c1.41 4.68 2.48 9.26 3.3 14.09.23 1.37.47 2.73.7 4.09.13.71.25 1.41.37 2.14 2.5 14.44 5.52 28.6 9.63 42.68.32 1.13.65 2.27.98 3.44 1.94 6.25 4.52 12.2 7.14 18.18.18.4.18.4 1.06 2.42.34.74.67 1.48 1.02 2.25.14.33.14.33.9 2.02.9 1.69.9 1.69 2.9 3.69-.7 5.89-5.16 10.54-9.62 14.07-2.43 1.7-4.88 3.35-7.38 4.93.34 2.93.57 4.56 2.67 6.7.69.47 1.37.94 2.08 1.42.72.51 1.43 1.01 2.17 1.53 1.66 1.08 3.36 2.07 5.08 3.04.66.43 1.32.86 2 1.31v3c-6.02 4.23-10.4 4.44-17.62 4.12-8.91-.2-17.53.17-26.38 1.17-5.04.56-9.92.8-15 .71v2c-1.12.25-2.25.51-3.4.77-22.15 5.06-22.15 5.06-26.6 10.23-2.01 1.76-4.05 3.49-6.1 5.22-1.9 1.78-1.9 1.78-3.52 4-.46.59-.91 1.17-1.38 1.78h-2c-.48 2.12-.96 4.24-1.42 6.37-.38 1.71-.76 3.43-1.16 5.14-.94 4.28-1.47 7.98-1.17 12.37.07 2.22.07 2.22-.25 4.12-2.88 2.31-2.88 2.31-6 4-2.28 3.31-2.24 6.25-2.19 10.19.01 1.06.02 2.13.02 3.23C221 265 221 265 222 266c.04 1.67.04 3.33 0 5h-2c-.28.87-.56 1.74-.84 2.63-1.09 3.18-2.33 6.22-3.66 9.31-1.82 4.32-3.36 8.51-4.5 13.06-3.28-1.64-3.87-5.17-5.12-8.44q-.42-1.035-.84-2.1C203 280.28 203 280.28 203 278h-2c-.16.33-.16.33-1 2-.82-2.06-1.63-4.12-2.44-6.19-.45-1.15-.9-2.29-1.37-3.48-1-2.8-1.71-5.4-2.19-8.33 3.44 4.22 5 7.5 5 13h2l-1-8c3.12 2.52 3.95 3.73 4.75 7.75.08 1.07.16 2.14.25 3.25h2l1 6h4c.27-1.07.54-2.14.81-3.25 1.19-3.75 1.19-3.75 2.75-5.63 2.26-3.33 2.41-7.15 2.44-11.12l-1-1c-.75-7.68 2.51-14.01 7-20h1c.01-.86.03-1.72.04-2.61.37-9.2 2.17-15.96 5.96-24.39h2c.26-.57.52-1.15.79-1.74 1.3-2.43 2.78-4.31 4.59-6.38.58-.69 1.17-1.37 1.77-2.08 1.87-1.82 3.53-2.65 5.85-3.8l2-3c2.43-1.13 2.43-1.13 5.31-2.12.47-.17.47-.17 2.87-1.01 2.82-.87 2.82-.87 5.4-1.39 2.42-.48 4.55-1.23 6.86-2.1 3.87-1.35 6.53-1.52 10.56-.38v-2c.78-.06 1.56-.12 2.37-.18 1.01-.09 2.02-.17 3.07-.26 1.01-.08 2.02-.16 3.06-.24C290 189 290 189 291 188c3.61-.38 7.25-.47 10.88-.62 1.01-.06 2.03-.11 3.08-.16.98-.05 1.96-.09 2.97-.13.9-.04 1.8-.09 2.73-.13C313 187 313 187 316 188l2-1c2.04-.07 4.08-.08 6.12-.06 1.1.01 2.2.02 3.33.02.42.01.42.01 2.55.04-.36-1.94-.36-1.94-1-4-1.66-.69-3.33-1.35-5-2-2.75-2.56-2.75-2.56-5-5l-1-1c-.38-2.75-.38-2.75 0-6 2.17-2.57 3.98-4.49 7-6l2 1c.11-.36.11-.36.69-2.19 1.56-3.34 3.61-5.33 6.31-7.81-1.55-5.06-3.16-9.5-6-14-2.25-4.78-3.84-9.57-5.31-14.65-.55-1.86-1.17-3.71-1.81-5.54-.88-2.81-.88-2.81-1.32-6.25-.51-3.24-1.46-5.62-2.77-8.6-1.36-3.39-2.16-6.9-2.98-10.46-.17-.72-.35-1.44-.53-2.18-1.07-4.55-1.31-8.63-1.28-13.32-.62-2.67-.62-2.67-1.44-5.19-1.74-5.9-2.25-11.68-2.56-17.81m-99 230v5h2c-.16-.82-.16-.82-1-5z"/><path fill="#867b6a" d="M472 58c2.02 3.45 2.57 6.69 3.12 10.62.17 1.15.34 2.3.51 3.48.37 2.9.37 2.9.37 4.9l6 1 1 4c.55.05 1.09.09 1.66.14 3.48 1.28 5.46 3.89 7.84 6.61.47.53.95 1.05 1.43 1.59 1.38 1.54 2.73 3.1 4.07 4.66.7.82 1.41 1.63 2.13 2.48 3.36 4.53 5.59 9.69 8.02 14.77.75 1.55 1.55 3.09 2.34 4.62 3.12 6.22 4.34 11.95 5.05 18.87.57 4.03 1.64 7.62 3.46 11.26 1.2-.16 2.4-.32 3.64-.49 6.36-.7 12.71-.69 19.11-.7.6 0 .6 0 3.65-.03.58-.01.58-.01 3.52-.01 1.05 0 2.1-.01 3.18-.01 2.9.24 2.9.24 7.9 2.24v22h-2c-.05.28-.05.28-.33 1.72-1.63 7.93-3.63 13.65-9.67 19.28-1.16 1.32-2.3 2.66-3.44 4-2.96 3.42-6.04 6.17-9.56 9-.35.39-.35.39-2.12 2.38-7.09 6.46-15.96 10.36-24.88 13.62-.84.35-1.68.7-2.55 1.07-3.11 1.18-6.15 1.54-9.45 1.93 1.57 3.47 3.16 6.29 5.75 9.06 2.25 2.94 2.25 2.94 2.19 5.5-.65 1.68-1.31 3.34-2 5C501 245 501 245 501 249c1.65 1.02 3.32 2.02 5 3 8.23 11.56 10.99 25.03 10 39-1.02 5.61-2.27 10.97-5 16h-6v-3l5-1c3.37-12.64 4.72-29.29-2-41-3.35-5.11-6.95-9.48-12-13 .52-2.68 1.26-4.46 2.62-6.88 1.68-3.79 1.84-5.24.38-9.12-2.97-3.19-6.39-5.59-10-8l1-3c1.79-.59 1.79-.59 4.06-.94 4.87-.91 8.6-2.69 12.94-5.06h-6c1.46-2.93 3.41-3.1 6.44-4.19.99-.36 1.97-.73 2.99-1.1C513 210 513 210 515 211l-5 3c9.23-1.43 18.34-7.59 25-14l1.02-2.05c1.2-2.38 2.43-3.14 4.67-4.57 10.3-7.57 14.49-19.32 17.31-31.38.45-3.41.78-6.63 0-10-2.35-2.35-2.81-2.26-5.99-2.32l-2.49-.06-2.68-.03-2.75-.06c-2.91-.06-5.81-.11-8.71-.15l-5.9-.12c-4.83-.1-9.65-.18-14.48-.26-1.61-3.82-2.3-6.99-2.69-11.12-2.88-21.2-13.31-40.47-30.06-53.69-2.1-1.6-4.13-3.12-6.41-4.46-2.7-2.54-2.9-5-3.59-8.61-.24-1.21-.48-2.42-.73-3.67-.44-2.91-.71-5.53-.52-8.45z"/><path fill="#926935" d="M390 250c4.59 2.72 9.12 5.53 13.62 8.38.77.46 1.53.93 2.32 1.42 6.78 4.3 9.29 8.6 11.47 16.28 1.12 5.55 1.02 11.09.97 16.73l.03 3.64c0 1.16-.01 2.32-.01 3.51 0 1.04-.01 2.08-.01 3.15-.44 3.28-1.52 5.2-3.39 7.89-.76-.31-1.53-.62-2.31-.94-1.88-.74-3.78-1.42-5.69-2.06v5h6l-3 9h-2l-1 3-4-2-.06-3.02c-.08-3.76-.17-7.52-.26-11.27-.04-1.62-.07-3.24-.1-4.85-.25-12.35-1.08-24.19-4.83-36.05-.21-.67-.42-1.35-.64-2.04-1.83-5.55-4.42-10.21-8.11-14.77z"/><path fill="#bf9258" d="M299 263h3v2c.7.08 1.4.17 2.12.25 3.53.92 5.94 2.63 8.88 4.75-.14 1.75-.29 3.5-.44 5.25-.08.97-.16 1.95-.24 2.95-.27 2.36-.67 4.52-1.32 6.8h-2v3.69c-.93 8.37-6.51 16.46-12.69 22-5.43 4.07-9.66 4.54-16.31 4.31.31-6.45 1.63-10.62 4.67-16.27 1.95-4.01 3.11-8.18 4.35-12.46 1.45-4.83 3.2-9.55 4.98-14.27h2c.12-.74.25-1.49.38-2.25.57-2.55 1.36-4.48 2.62-6.75"/><path fill="#986c36" d="M286 320c6.13 1.35 10.91 4.9 15.94 8.5 5.34 3.78 10.66 6.56 16.75 8.94 5.62 2.65 8.18 5.87 10.31 11.56 1.32 1.67 2.66 3.34 4 5v2c-18.04-.26-35.98-4.74-49-18-1.05-.5-2.1-.99-3.19-1.5-2.81-1.5-2.81-1.5-4.19-4.19-.2-.76-.41-1.52-.62-2.31.72-.17 1.44-.33 2.19-.5 4.07-2.17 5.64-5.53 7.81-9.5"/><path fill="#3b948a" d="M493 250c6.68 2.87 11.47 9.85 15 16 2.38 6.37 2.26 12.45 2.19 19.19v3.27c-.05 8.68-.05 8.68-1.19 12.54-8.23-.95-14.8-8.24-19.94-14.31-4.16-5.71-7.45-12.77-6.74-19.93.72-2.92 1.14-4.16 3.68-5.76 1.94-.12 1.94-.12 4 1 1.51 2.25 2.72 4.6 4 7l2 1c-.17-.82-.17-.82-1-5h-2c-3.69-7.85-3.69-7.85-3-12 1.5-1.81 1.5-1.81 3-3"/><path fill="#ba5f1c" d="M327 260c1.18 3.68 1 7.16 1 11 .5 2.44.5 2.44 1 4l-2-1v-2l-3 1c-1.1 2.22-1.1 2.22-2.06 5.06-.32.92-.64 1.84-.98 2.79-2.17 7.09-3.27 13.07-3.15 20.46.01.83.02 1.66.02 2.51.08 6.09.41 12.13 1.17 18.18h2v-14h4v6h-1v-5h-2l2 27c-5.51-1.1-9.47-3.08-14.38-5.69l-2.5-1.28c-5.34-2.81-9.67-5.94-14.12-10.03l1-3c.5-.17.5-.17 3-1 1.61-2.16 3.1-4.3 4.56-6.56 1.43-2.2 2.89-4.32 4.44-6.44h2c.18-.64.36-1.28.55-1.94 1.15-3.97 2.3-7.73 4.01-11.5 1.92-4.74 2.67-9.52 3.44-14.56h-2l-1 5c-.99-3.09-.88-4.9 0-8 1.26-.21 2.52-.41 3.81-.62 3.55-.87 3.98-1.03 6-4.32.39-1.01.79-2.02 1.19-3.06 1.69-1.88 1.69-1.88 3-3"/><path fill="#9f743d" d="M227 248c3 1 3 1 4.69 4.12 4.65 8.54 13.81 13.73 22.31 17.88 4.51 1.26 8.83 1 13.48.84C270 271 270 271 273 273c-.31 1.98-.62 3.96-.94 5.94-.17 1.1-.35 2.2-.52 3.34C271 285 271 285 270 286c-1.98.13-3.96.18-5.94.19-1.08.01-2.16.03-3.27.04C258 286 258 286 256 284c-1.97-.2-3.95-.39-5.92-.59-3.19-.63-5.43-2.58-8.08-4.41-1.22-.19-2.43-.37-3.69-.56-6.62-1.45-11.42-7.21-15.31-12.44-1.87-4.98-1.54-8.57.31-13.5C225 250 225 250 227 248"/><path fill="#3e2f19" d="M462.113 133.453c6.47 5.3 10.21 11.06 11.24 19.41.35 7.34-1.12 12.15-5.35 18.14h-3v-2c-.43.08-.43.08-2.57.5-4.69-.69-5.99-2.93-8.82-6.56-1.61-1.94-1.61-1.94-4.61-3.94-.37-3.05-.37-3.05-.32-6.75.01-1.21.01-2.43.02-3.68.29-3.5 1.04-6.3 2.3-9.57h4c.33.49.33.49 2 3l3-1 2 9 4 1c1-1 1-1 1.23-3.27-.28-3.25-1.2-4.81-3.05-7.48-.52-.78-1.04-1.56-1.58-2.36-2.03-2.4-3.74-2.79-6.8-3.17-6.63-.27-10.72.99-15.8 5.28-4.91 5.02-5.14 9.5-5.07 16.31l.03 3.24c.01.81.02 1.61.04 2.45-3-1-3-1-4.19-3.07-1.87-6.75-1.04-11.71 1.98-17.89 3.03-5.13 7.48-8.63 13.02-10.73 6.7-.96 10.72-.77 16.3 3.14"/><path fill="#bc9058" d="M332 234c2.02 1.3 4.03 2.63 6 4 3.38.75 3.38.75 6 1v2c-1.65 1.19-1.65 1.19-3.94 2.56-9.77 6.36-15.98 14.66-22.06 24.44-4.62-.55-7.98-2.59-11.81-5.06-.6-.38-1.2-.76-1.81-1.15-1.47-.92-2.92-1.85-4.38-2.79 2.24-10.04 11.7-17.79 19.62-23.69 4.61-2.87 7.2-2.84 12.38-1.31"/><path fill="#de7722" d="M518 152h28v2c-2.51 1.77-5.1 3.35-7.71 4.95-2.87 2.57-3.04 4.29-3.29 8.05-4.22 1.5-8.44 2.99-12.66 4.46-2.38.84-4.74 1.69-7.09 2.61-5.65 2.14-11.23 2.69-17.25 1.93l-3-2c1.3-1.46 2.6-2.93 3.91-4.39C500 168 500 168 500 165c-.99-.16-.99-.16-6-1v-2l1.86.18c2.46.13 4.7.17 7.14-.18 1.88-2.25 1.88-2.25 3-5 1.12-2.38 1.12-2.38 3-4 3.07-.03 5.99.42 9 1z"/><path fill="#e0bd87" d="M13 240c1.59 3.19.92 5.72 0 9-1 3-1 3-3.06 4.19-.64.27-1.28.53-1.94.81 1-.05 2.01-.09 3.04-.14 14.05-.45 25.65 2.29 36.96 11.14 2.38 2.24 4.09 4.31 6 7v3h2c.86 1.62 1.72 3.25 2.56 4.88.48.9.95 1.8 1.44 2.74.33.78.66 1.57 1 2.38-.16.33-.16.33-1 2-.33-.17-.33-.17-2-1 .16.34.16.34 1 2.06 1.17 3.45 1.14 6.32 1 9.94h-4v9h-2v-3h-2v-3l-5-1v-6h-2c-.09-.97-.17-1.93-.26-2.93-1.1-10.17-2.93-19.63-10.98-26.76-9.1-6.79-17.78-7.17-28.76-7.31 1.07-3.94 2.13-7.67 4-11.31.16-.33.16-.33 1-1.99 1-1.7 1-1.7 3-3.7"/><path fill="#a39782" d="m101 188 3 1c3.21.26 6.42.44 9.64.61 5.16.29 5.16.29 7.36 1.39 3.24.53 6.49.96 9.74 1.4 3.01.56 5.46 1.38 8.26 2.6.93.29 1.86.58 2.81.88 3.92 1.38 7.52 3.2 11.19 5.12v2c.76.29 1.53.58 2.31.88C158 205 158 205 161 207v2c.89.23 1.77.45 2.69.69 5.72 2.27 8.25 6.21 11.31 11.31 1.65 1.69 3.31 3.35 5 5 2.7 3.07 4.02 5.1 5 9l3 1c1.18 1.68 1.18 1.68 2.31 3.88.43.8.85 1.61 1.29 2.44L193 245c1.06 1.92 2.12 3.83 3.19 5.75 5.34 9.65 5.34 9.65 3.81 16.25-2-2-2-2-2.12-5.62L198 258l-3-1c-1.3-2.38-2.44-4.73-3.56-7.19-10.77-22.43-29.24-42.18-52.94-50.93-1.83-.63-3.67-1.26-5.5-1.88-.76-.29-1.53-.58-2.31-.88-9.19-3.4-18.57-3.2-28.25-3.24-.44-.01-.44-.01-2.65-.02-14.97.04-28.59 2.86-42.2 9.19-2.72 1-4.72 1.14-7.59.95v2l-2.05 1.03c-7.01 3.65-12.99 7.8-18.95 12.97-.5.43-.99.86-1.51 1.3-6.2 5.41-11.9 10.81-16.49 17.7-.51.69-1.02 1.39-1.55 2.11C5.44 245.72 3.08 251.44 1 258H0v-10c.33-.16.33-.16 2-1 .29-.73.57-1.45.87-2.2C6.64 235.46 14.8 227.81 22 221c.54-.58 1.08-1.15 1.63-1.75C25 218 25 218 27 218l.79-1.82c3.51-6.3 11.66-9.66 17.79-12.88C48 202 48 202 51 200c1.2-.33 2.39-.66 3.62-1 1.12-.33 2.23-.66 3.38-1l1-2c1.93-.53 3.86-1.05 5.82-1.49 1.94-.45 3.84-1.04 5.74-1.63 3.61-.92 6.73-1.03 10.44-.88v-2c.57-.03 1.14-.05 1.73-.08q3.855-.165 7.71-.36l2.72-.12 2.59-.12c.39-.02.39-.02 2.39-.11C100 189 100 189 101 188"/><path fill="#5c564e" d="M439 0c4.05-.77 7.94-.69 12 0 2.47 1.76 3.36 3.35 5 6l3 2c2.99 5.53 4.51 11.51 5.51 17.68.55 2.6 1.5 4.86 2.49 7.32q.795 2.925 1.5 5.88c.83 3.42 1.67 6.81 2.69 10.18C472 52 472 52 472 55h-3c-1.9-5.94-3.46-11.83-4.57-17.97C464 35 464 35 463 33c-.13-2.67-.04-5.32 0-8h-2c-.28-.92-.56-1.84-.85-2.78C455.43 7.78 455.43 7.78 449 3c-3.94-.96-5.43-.3-9 1.56-6.02 4.89-9.55 10.06-12.86 17.05-1.2 2.52-2.59 4.9-3.98 7.32-4.45 7.98-8.32 16.08-11.54 24.63-.25.67-.5 1.34-.75 2.02-1.26 3.45-2.27 6.8-2.87 10.42-1.88-.31-1.88-.31-4-1l-2-3c-.5-.16-.5-.16-3-1-1.69-1.64-3.36-3.31-5-5-10.53-9.34-21.56-17.69-33.58-25.03-1.51-.94-2.97-1.95-4.42-2.97v-2c-.72-.11-1.43-.21-2.17-.32-3.1-.74-5.33-1.9-8.08-3.49-.97-.54-1.94-1.07-2.94-1.62-1.67-.94-3.34-1.88-5-2.86-6.83-3.61-14.25-3.49-21.81-2.71-3.86 2.57-3.94 4.61-5 9h-3l1-6h2c.1-.6.21-1.2.31-1.81.82-2.59 1.56-3.52 3.69-5.19 10.32-1.62 21.05.93 30 6v2c.76-.06 1.53-.12 2.31-.19 3.27.23 3.54.87 5.69 3.19 1.98 1.05 3.97 2.05 6 3v2c.8.12 1.61.25 2.44.38.42.1.42.1 2.56.62.17.33.17.33 1 2 2.51 1.3 5.07 2.44 7.65 3.59 2.64 1.59 3.13 2.66 4.35 5.41 2.62 1.25 2.62 1.25 5 2v2c.91.23 1.81.45 2.75.69 3.75 1.51 4.86 3.13 7.25 6.31 2.25 1.31 2.25 1.31 4 2v2c.5.16.5.16 3 1l2 2.06c2 1.94 2 1.94 5 1.94.29-.68.58-1.36.89-2.06 1.32-3.09 2.65-6.17 3.99-9.25.46-1.07.92-2.15 1.39-3.25.44-1.03.89-2.06 1.35-3.12.41-.94.81-1.89 1.23-2.87C416 36 416 36 418 33c.17-.87.33-1.73.5-2.62.17-.79.33-1.57.5-2.38.33-.16.33-.16 2-1 1.02-1.65 1.96-3.35 2.88-5.06.53-1 1.06-1.99 1.61-3.01 1.24-2.41 2.39-4.84 3.51-7.31 1.94-3.98 4.5-5.96 8-8.62z"/><path fill="#8a7f6e" d="M78 376c3.87.61 6.23 2.47 9.31 4.81 22.64 16.77 48.93 21.98 76.61 18.73 7.33-1.55 14.19-4.42 21.06-7.33C188 391 188 391 190 391v5h-2c-.25.57-.51 1.14-.77 1.73-4.63 8.54-11.96 12.51-20.9 15.49-8.32 4.44-11.4 13.74-14.89 22.03-.46 1.06-.91 2.11-1.38 3.2-2.73 6.33-5.37 12.7-7.96 19.08C141 460 141 460 139 463c-.68 2-1.34 4-2 6-.66 1.63-1.33 3.25-2 4.88-3.58 8.99-4.27 16.39-4 26.12l-1-2h-2c-1.15-14.82 3.12-25.87 9.93-38.86 1.26-2.51 2.19-5.11 3.13-7.76 1.57-3.98 3.48-7.81 5.33-11.67 1.77-3.75 3.24-7.44 4.49-11.4 2.28-6.55 6.25-12.4 11.12-17.31 3.1-1.21 3.1-1.21 6-2l3-2h4c.16-.5.16-.5 1-3l3-2c.69-2.12.69-2.12 1-4-1.05.62-2.1 1.24-3.19 1.88-6.7 3.38-14.38 4.12-21.81 4.12-1.38.03-2.76.07-4.13.11-8.8.17-17.3-.03-25.99-1.49-.77-.12-1.53-.25-2.32-.38-5.29-.97-5.29-.97-7.56-3.24-1.52-.6-3.07-1.14-4.62-1.62-.82-.27-1.64-.53-2.48-.79-.63-.2-1.25-.39-1.9-.59v-2c-.91.06-1.81.12-2.75.19-3.74-.22-4.4-.94-7.25-3.19-2.63-1.57-5.29-3.08-7.95-4.6-.68-.46-1.35-.92-2.05-1.4v-2c-.76-.23-1.53-.45-2.31-.69-3.24-1.58-4.11-3.14-5.69-6.31"/><path fill="#f4e3b8" d="M460.813 135c3.86 3.53 6.83 7.64 7.62 12.88-.43 2.12-.43 2.12-2.43 4.12-2-.19-2-.19-4-1-2.43-3.64-2.16-5.71-2-10l-4 2-1-4h-4c-1.57 8.18-2.94 19.05.75 26.81 1.96 2.79 3.43 4.38 6.25 6.19v2c-6.99-.26-13.23-.75-19-5-2.72-3.4-3-4.57-3-9h-2c-.31-8.77.25-14.8 6.37-21.45 5.68-5.4 13.21-6.12 20.44-3.55"/><path fill="#e0c594" d="M403 217c2.08.14 4.17.29 6.25.44l3.52.24c5.3.52 9.39 2.18 14.23 4.32v2c5.12-.12 10.25-.24 15.37-.37 1.74-.05 3.48-.09 5.22-.13l7.53-.18c.77-.02 1.54-.04 2.33-.05 6.18-.17 12.16-.56 18.11-2.33 3.63-.99 6.7-1.09 10.44-.94-2.22 1.8-4.43 3.6-6.76 5.25-6.11 4.36-13.84 9.95-17.24 16.75-3.84-.55-6.2-1.58-9.31-3.88-3.37-2.33-6.47-3.92-10.39-5.23-2.93-1.13-5.59-2.64-8.36-4.14-9.71-5.12-20.42-7.79-30.94-10.75z"/><path fill="#f4dcae" d="M344 64c3.5.63 5.84 2.05 8.75 4.06.8.55 1.6 1.1 2.42 1.66.61.42 1.21.85 1.83 1.28l-1 2c-.82-.16-.82-.16-5-1v3l4 2-2 4c2.21 3.49 4.09 4.73 8 6l-1 2h-6c-.25 2.31-.25 2.31 0 5 2.6 2.6 5.58 3.76 9 5l-3 5h6c1.14-2.19 2.09-4.27 2.88-6.62 1.31-2.78 2.29-3.34 5.12-4.38-.27-.72-.54-1.44-.81-2.19-.03-.46-.03-.46-.19-2.81 2.31-2.56 2.31-2.56 5-5 1.31-2.31 1.31-2.31 2-4 1.65 4.17 2.49 6.72 1 11-1.91 2.54-4.09 4.79-6.31 7.06l-1.77 1.86c-2.93 3.07-5.9 6.09-8.92 9.08l-1-2c-2.06-.62-2.06-.62-4-1v-2h-3l1 6c-.5-.16-.5-.16-3-1-.17-.5-.17-.5-1-3l-3-1v2l-8 3-.31-2.81c-.7-3.22-1.17-4.22-3.69-6.19 1.79-.98 3.58-1.95 5.37-2.93C345 96 345 96 346 94l3 1c1.78-5.79 2.32-10.08 1-16h-2c-.1-1.03-.21-2.06-.31-3.12-.68-3.84-1.87-6.47-3.69-9.88z"/><path fill="#367a70" d="M347 205c4.65.34 8.4 1.03 12.69 2.88 5.91 2.52 12.03 3.82 18.31 5.12v-2l4 1h-3v2c.82.16.82.16 5 1v1c-2.29.19-4.58.38-6.88.56-.63.05-.63.05-3.86.32C370 217 370 217 368 216l-1 3h-4l-1 5c.97.41 1.94.82 2.94 1.25 3.06 1.75 3.06 1.75 3.75 3.86.1.62.21 1.25.31 1.89-.53-.18-1.07-.36-1.62-.55-16.61-5.61-16.61-5.61-24.38-6.45.57-2.87.86-3.86 3-6-.11-2.57-.52-5.04-.91-7.59C345 208 345 208 347 205"/><path fill="#9b8f7e" d="M488 291c4.61 1.84 7.09 3.49 10.81 6.62.98.82 1.95 1.64 2.96 2.48.74.63 1.47 1.25 2.23 1.9l-2 2c-3.41-1.93-6.74-3.83-10-6-.17.89-.34 1.78-.52 2.7-.24 1.17-.48 2.34-.73 3.55-.23 1.16-.46 2.32-.7 3.52-1.13 3.49-2.15 5.03-5.05 7.23h-3c-1.33 2.37-2.12 4.47-2.81 7.12-2.82 10.21-9.14 20.95-17.19 27.88h-2c-.85 2.71-1.32 4.23-1 7 1.58 2.36 3.34 4.28 5.34 6.3C466 365 466 365 467 367c.62.24 1.23.49 1.87.74 3.11 1.84 3.78 4.16 5.19 7.45.51 1.16 1.02 2.33 1.55 3.53.46 1.08.92 2.17 1.39 3.28.35.76.69 1.52 1.05 2.31 1.26 2.77 1.95 4.61 1.95 7.69h2c.96 4.04 1.17 7.85 1.19 12 .01 1.2.03 2.39.04 3.62-.22 3.26-.83 5.46-2.23 8.38h-2c.1-.91.19-1.81.29-2.75.66-7.21 1.03-13.36-1.29-20.25l-1-3.09c-2.66-7.52-6.05-13.67-11-19.91-.5-.64-.99-1.27-1.5-1.93-3.71-4.54-8-8.32-12.5-12.07 2.7-3.21 5.37-6.38 8.38-9.31C470.69 336.13 479 322.28 479 307c.58.31 1.15.62 1.75.94C483 309 483 309 487 310z"/><path fill="#fbe0b1" d="M449.688 110.938c.59 0 .59 0 3.57.03l2.74.03v2c.3.06.3.06 1.78.33 5.02 1.51 8.51 5.54 11.22 9.86 1 2.81 1 2.81 0 5.81l-3.06-1.94c-7.09-3.99-17.55-4.54-25.38-2.39-1.87.74-3.72 1.53-5.56 2.33h-3l-1 3h-3c1.61-7.62 5.67-13.59 12-18 3.42-1.14 6.09-1.1 9.69-1.06"/><path fill="#896434" d="M310 193c6.87-.51 12.43-.37 18 4 4.52 4.17 7.07 8.24 7.43 14.43.08 4.21-.12 8.38-.43 12.57-5.62 3-5.62 3-9 3-.1-.97-.21-1.94-.31-2.94-1.47-10.13-5.73-19.57-12.69-27.06l-3-2z"/><path fill="#6b6555" d="M31.063 266.063c1.72 1.54 1.72 1.54 2.94 2.94v2h2v2h2c-.17-.83-.17-.83-1-5 3.25 2.83 4.52 4.68 5 9l-2-1v-2h-2c.16 1.32.16 1.32 1 8h2c1.48 7.12 2.93 14.23 4 21.44 1.72 11.38 3.36 22 7.81 32.69 1.19 2.87 1.19 2.87 2.05 5.79 1.42 3.83 3.47 6.9 5.76 10.26 4.38 6.41 4.38 6.41 4.38 9.82h-3c-.42-1.03-.83-2.06-1.25-3.13a39 39 0 0 0-3.63-6.69c-9.86-14.79-14.02-32.36-16.12-49.81-2.96-24.32-2.96-24.32-9.61-30.98-.52-.38-1.04-.75-1.58-1.14-.93-.75-1.86-1.49-2.81-2.25v-2c-14.22-3.76-14.22-3.76-21.14-1.55-1.86.55-1.86.55-5.86.55v-4c11.18-1.66 21.83-2.52 31.06 5.06"/><path fill="#b2a492" d="M328.887 11.316c6.05.94 10.79 2.67 16.11 5.68v2c.77-.06 1.53-.12 2.32-.18 3.27.22 3.53.86 5.68 3.18 1.98 1.05 3.98 2.06 6 3v2c.81.13 1.61.25 2.44.38.42.1.42.1 2.56.62.17.33.17.33 1 2 2.51 1.3 5.08 2.44 7.66 3.59 2.64 1.59 3.13 2.67 4.34 5.41 2.63 1.25 2.63 1.25 5 2v2c.91.23 1.82.46 2.75.69 3.76 1.52 4.87 3.13 7.25 6.31 2.25 1.32 2.25 1.32 4 2l-1 3c-4.62-2.31-8.29-5.03-12.18-8.43-6.3-5.48-13.24-9.87-20.31-14.28-.42-.26-.42-.26-2.55-1.6-.77-.47-1.53-.94-2.31-1.42-.54-.42-1.09-.84-1.65-1.27v-2c-.71-.1-1.43-.21-2.17-.32-3.09-.74-5.33-1.9-8.08-3.49-.97-.53-1.94-1.07-2.93-1.62-1.68-.93-3.35-1.88-5-2.85-6.84-3.61-14.26-3.5-21.82-2.72-3.86 2.58-3.94 4.61-5 9h-3l1-6h2c.11-.59.21-1.19.32-1.81 2.47-7.86 10.99-5.59 17.57-4.87"/><path fill="#78562a" d="M311 335c11.22 2.88 11.22 2.88 15 7 1.05 2.31 2.05 4.65 3 7 1.31 1.68 2.64 3.36 4 5v2c-9.05-.33-17.44-.73-26-4l4-1c-.07-.68-.14-1.35-.22-2.05-.09-.89-.18-1.78-.28-2.7-.09-.88-.19-1.76-.28-2.67-.51-6-.51-6 .78-8.58"/><path fill="#56442f" d="m329 96 2 1c.66 2.04 1.31 4.08 1.93 6.12 1.76 4.75 4.3 9.12 6.74 13.55 1.48 3.72 1.43 5.53.33 9.33-1 1-1 1-3.25 1.31-3.57-.4-5.14-1.92-7.75-4.31l-1 2c-3.33-7.88-6.44-15.28-6-24 .6.17 1.2.33 1.81.5 2.19.5 2.19.5 5.19.5z"/><path fill="#ddc08d" d="M420 306h1c0 6.09-.05 12.1-.5 18.19-.09 1.27-.19 2.54-.28 3.85-.07.98-.15 1.95-.22 2.96 2.96-1.3 4.76-2.58 6.75-5.12.74-.95 1.49-1.9 2.25-2.88l3 1c-.16.84-.33 1.68-.5 2.54-.53 3.67-.6 7.13-.56 10.84.01 1.24.02 2.49.02 3.77.02.94.03 1.88.04 2.85-4.46-1.57-8.19-3.87-12.12-6.44-.63-.39-1.25-.79-1.88-1.19-2.94-1.9-5.68-3.73-8-6.37 1.2-2.42 2.43-4.83 3.66-7.24.61-1.21 1.23-2.42 1.84-3.64.31-.59.62-1.19.93-1.81 1.87-3.7 3.36-7.35 4.57-11.31"/><path fill="#be9155" d="M241 282c4 1.33 8 2.67 12 4-.7 7.94-2.62 13.88-8 20-4.39-.51-7.02-2.89-10-6-1.39-6.43 1.83-11.58 5-17z"/><path fill="#2e766b" d="M484.188 226.063c2.05 1.06 3.22 2.28 4.81 3.94.42.23.42.23 2.5 1.44 2.62 1.63 4.03 2.85 5.5 5.56-.31 2.25-.31 2.25-1 4-.4-.51-.81-1.02-1.23-1.54-1.77-1.46-1.77-1.46-3.78-1.42-.37.09-.37.09-2.24.58-.4.11-.4.11-2.42.64-3.21 1.02-6.24 2.39-9.33 3.74-2.65.76-5.3 1.38-8 2l1-3-4 1c0-3 0-3 2.19-5.38.93-.86 1.86-1.73 2.81-2.62l2.44-2.56c6.82-6.49 6.82-6.49 10.75-6.38"/><path fill="#625d53" d="M174.188 407.375c.93.21 1.86.41 2.81.62-3.56 2.94-7 4.12-11.36 5.45-7.75 4.56-10.87 13.91-14.2 21.81-.46 1.05-.91 2.11-1.38 3.19-2.72 6.34-5.36 12.7-7.96 19.09-1.1 2.46-1.1 2.46-3.1 5.46-.68 2-1.34 4-2 6-.66 1.63-1.32 3.26-2 4.88-3.58 8.99-4.26 16.39-4 26.12-.33-.65-.66-1.31-1-2h-2c-1.15-14.81 3.12-25.87 9.93-38.86 1.26-2.51 2.19-5.1 3.13-7.75 1.57-3.98 3.48-7.82 5.33-11.68 1.77-3.74 3.24-7.43 4.49-11.39 2.28-6.55 6.25-12.4 11.12-17.32 3.1-1.21 3.1-1.21 6-2 3-2 3-2 6.19-1.62"/><path fill="#6f6a5c" d="M430 406h2v4h2c.21.58.42 1.16.63 1.76 2.68 6.79 6.06 11.12 12.67 14.37 7.46 2.4 15.62 1.87 22.58-1.63 1.39-.81 2.77-1.63 4.12-2.5.17.5.17.5 1 3-.64.1-1.28.21-1.94.31-.68.23-1.36.46-2.06.69-.17.5-.17.5-1 3-9.51 3.35-18.75 2.84-28-1v-2c-.31-.07-.31-.07-1.88-.44C438 425 438 425 436 424c.52 4.98 2.17 9.09 4.16 13.63.84 2.37.84 2.37.84 6.37h2l1 4c-.5.17-.5.17-3 1-11.99-29.11-11.99-29.11-11-43m2 9 2 5 1-2-1-3z"/><path fill="#836031" d="M367 234c1.42.6 2.86 1.17 4.31 1.69 1.22.43 2.44.86 3.69 1.31v2c-1.46-.31-2.92-.62-4.38-.94-.81-.17-1.62-.35-2.46-.52C366 237 366 237 364 236a79 79 0 0 0-4.62 0c-7.49.08-14.92-.48-22.38-1v-2l-7-1-1 2-3-2h3l1-3c12.87-4.62 25.56-1.94 37 5"/><path fill="#ac9d8c" d="m316 188 2-1c2.33-.04 4.67-.04 7 0v1h-6v2c-4.84.43-9.68.86-14.51 1.28-1.65.15-3.29.29-4.93.44-2.38.21-4.75.42-7.12.62-.73.07-1.45.13-2.2.2-4.76.41-9.46.52-14.24.46v2c-1.12.25-2.25.51-3.4.77-21.9 5.01-21.9 5.01-26.6 10.23-2.25.75-2.25.75-4 1v-3c.62-.27 1.24-.54 1.88-.81C246 202 246 202 248 199c2.43-1.13 2.43-1.13 5.31-2.12.47-.17.47-.17 2.87-1.01 2.82-.87 2.82-.87 5.4-1.39 2.42-.48 4.55-1.23 6.86-2.1 3.87-1.35 6.53-1.52 10.56-.38v-2c.78-.06 1.56-.12 2.37-.18 1.01-.09 2.02-.17 3.07-.26 1.01-.08 2.02-.16 3.06-.24C290 189 290 189 291 188c2.57-.24 5.11-.42 7.69-.56.35-.02.35-.02 2.14-.13 11.15-.65 11.15-.65 15.17.69"/><path fill="#867c6b" d="m55.188 199.875 3.81.12-1 2c-2.65.6-5.29.75-8 1v2c-.68.35-1.35.69-2.05 1.04-7.01 3.65-12.99 7.79-18.95 12.96-.49.44-.99.87-1.5 1.31-6.21 5.41-11.91 10.8-16.5 17.69-.51.7-1.02 1.39-1.54 2.11-4.02 5.61-6.37 11.34-8.46 17.89h-1v-10c.33-.16.33-.16 2-1 .29-.72.58-1.45.87-2.2 3.77-9.34 11.93-16.98 19.13-23.8.54-.57 1.08-1.15 1.64-1.74 1.36-1.26 1.36-1.26 3.36-1.26l.79-1.82c3.51-6.29 11.66-9.66 17.79-12.88 6.57-3.52 6.57-3.52 9.61-3.42"/><path fill="#76552b" d="M223 271c3.36 1.44 5.59 3.25 8 6v2l4 1c.56 1.94.56 1.94 1 4l-1 1c-.23 1.35-.41 2.7-.56 4.06-.15 1.3-.29 2.6-.44 3.94-.56-.45-1.11-.91-1.69-1.38-2.37-1.66-4.63-2.56-7.31-3.62l-2-2c-2.5-.31-2.5-.31-5 0l-2 3c1.02-6.52 3.38-12.49 7-18"/><path fill="#244b3c" d="M260 229c2.81 1.79 4.51 3.02 6 6 .49 7.12-.62 12.6-4.75 18.5-3.21 2.14-5.49 1.99-9.25 1.5-2.29-3.44-2.18-4.99-2-9h2l2 6c2.31 0 2.31 0 5-1 2.78-5.46 3.62-9.92 3-16-1.06-2.06-1.06-2.06-3-3-4.1 0-6.31.46-9.56 3-2.65 3.26-4.9 6.64-7.11 10.21-.44.59-.88 1.18-1.33 1.79h-2c-.03-1.62-.05-3.25-.06-4.88-.01-.9-.03-1.8-.04-2.74.1-2.38.1-2.38 1.1-4.38h2v3l1.19-1.19L245 235l2.56-2.62c3.82-3.72 7.24-4.13 12.44-3.38"/><path fill="#98774c" d="M344 64c3.5.63 5.84 2.05 8.75 4.06.8.55 1.6 1.1 2.42 1.66L357 71l-1 2-5-1v3l4 2-2 4c2.21 3.49 4.09 4.73 8 6l-1 2h-6c-.25 2.31-.25 2.31 0 5 2.6 2.6 5.58 3.76 9 5l-1 2c-3.14-.07-5.3-.43-7.77-2.45-1.65-1.78-3.02-3.45-4.23-5.55.12-2.69.12-2.69 1-5 0-3.27-.3-5.85-1-9h-2c-.1-1.03-.21-2.06-.31-3.12-.68-3.84-1.87-6.47-3.69-9.88z"/><path fill="#725228" d="M280 309c1.53 3.07.55 5.7 0 9 .61-.05 1.23-.09 1.86-.14 2.44-.11 4.72-.15 7.14.14 2.06 2 2.06 2 3 4l-6-2c-.12.36-.12.36-.75 2.19-1.39 3.13-2.86 5.35-5.25 7.81h-4l1 3c-2.88-1.29-4.87-2.66-7-5l1-3h2c.08-.91.17-1.81.25-2.75.87-3.76 2.05-4.63 4.75-7.25 1.25-3.25 1.25-3.25 2-6"/><path fill="#aa9985" d="M503 251c4.56 1.52 5.42 4.9 7.57 9.02 6.6 13.81 7.2 28.46 2.43 42.98-.63 1.35-1.29 2.69-2 4h-6v-3c.82-.17.82-.17 5-1 3.4-12.75 4.61-29.13-2-41-1.59-2.39-3.3-4.68-5-7z"/><path fill="#2c251a" d="M167.18 413.39c.6.2 1.2.4 1.82.61-.55.34-.55.34-3.31 2.06-3.97 2.8-5.17 5.39-6.69 9.94h-2c-.1.68-.21 1.36-.31 2.06-.69 2.94-.69 2.94-2.25 6.44C153 438 153 438 153 440.81V443l-3 2c-.7 1.99-1.36 3.99-2 6-1.44 3.01-3.03 5.94-4.62 8.87-.42.79-.85 1.57-1.28 2.38-1.03 1.92-2.06 3.83-3.1 5.75h-1c-.26-4.01.41-6.36 2.31-9.88 3.16-5.9 5.66-12.02 8.14-18.22 11.22-27.86 11.22-27.86 18.73-26.51"/><path fill="#8e8273" d="M446 0c2.19-.38 2.19-.38 5 0 2.62 2.88 2.62 2.88 5 6l3 2c2.99 5.53 4.51 11.51 5.51 17.68.55 2.6 1.5 4.86 2.49 7.32q.795 2.925 1.5 5.88c.83 3.42 1.67 6.81 2.69 10.18C472 52 472 52 472 55h-3c-1.9-5.94-3.46-11.83-4.57-17.97C464 35 464 35 463 33c-.13-2.67-.04-5.32 0-8h-2c-.27-.91-.54-1.81-.81-2.75C457.49 13.88 454.52 8.16 448 2z"/><path fill="#908873" d="M194 262c3.44 4.22 5 7.5 5 13h2l-1-8c3.12 2.52 3.95 3.73 4.75 7.75.04.54.04.54.25 3.25h2l1 6h4l.88-3.44c.37-1.17.74-2.35 1.12-3.56l2-1c-.48 4.77-1.08 8.59-3 13-.69 2.33-1.36 4.66-2 7-3.28-1.64-3.87-5.17-5.12-8.44q-.42-1.035-.84-2.1C203 280.28 203 280.28 203 278h-2l-1 2c-.82-2.06-1.63-4.12-2.44-6.19-.22-.57-.22-.57-1.37-3.48-1-2.8-1.71-5.4-2.19-8.33m15 24v5h2c-.16-.82-.16-.82-1-5z"/><path fill="#d19254" d="M86 196c4.39-.05 8.78-.09 13.18-.11 1.49-.01 2.98-.02 4.47-.04 10.91-.13 20.3.45 30.35 5.15v2h-2v2h-3l-1 5-3-2c-3.27-.18-6.22-.16-9.44.5-3.56.69-6.94.56-10.56.5v-1c1.11-.12 2.23-.25 3.38-.38C112 207 112 207 114 205c2.82-.2 2.82-.2 6.12-.12 1.1.01 2.2.03 3.33.05.42.01.42.01 2.55.07v-2l-4-1v-2h2v-2l-38-1z"/><path fill="#d4b783" d="M458 322h2c.2.69.41 1.37.62 2.08l.82 2.73c.13.45.13.45.81 2.71.55 1.83 1.14 3.66 1.75 5.48l2 1c-1 1-1 1-3.56 1.06L460 337c-.05.28-.05.28-.29 1.71-.87 2.82-2.24 4.56-4.09 6.85-.6.77-1.21 1.53-1.83 2.32-3 3.56-3 3.56-4.79 5.12h-2c.57-3.87 2.39-6.15 5-9h2c.12-.89.25-1.77.38-2.69.56-3.01 1.39-5.51 2.62-8.31h-2c.31-1.46.62-2.92.94-4.38.17-.81.35-1.62.52-2.46C457 324 457 324 458 322"/><path fill="#aa9e91" d="M328.887 11.316c6.05.94 10.79 2.67 16.11 5.68v2l2.32-.25c2.68.25 2.68.25 4.5 2.25.19.33.19.33 1.18 2-4.9-.4-7.92-1.36-12.21-3.94-7.88-4.65-15.84-4.87-24.79-4.06-3.86 2.58-3.94 4.61-5 9h-3l1-6h2c.11-.59.21-1.19.32-1.81 2.47-7.86 10.99-5.59 17.57-4.87"/><path fill="#968c7a" d="M448 134c8.71-.46 8.71-.46 12.81 1 3.87 3.53 6.83 7.64 7.63 12.88C468 150 468 150 466 152c-2-.19-2-.19-4-1-2.43-3.64-2.16-5.71-2-10l-4 2c-.12-.64-.25-1.28-.38-1.94-.2-.68-.41-1.36-.62-2.06l-2-1 2-3h-7z"/><path fill="#716b59" d="M78 376c3.87.61 6.23 2.47 9.31 4.81C98.17 388.85 110.11 394 123 398v1c-6.33.35-11.1-.71-17-3v-2c-.91.06-1.81.12-2.75.19-3.74-.22-4.4-.94-7.25-3.19-2.63-1.57-5.29-3.08-7.95-4.6-.68-.46-1.35-.92-2.05-1.4v-2c-.76-.23-1.53-.45-2.31-.69-3.24-1.58-4.11-3.14-5.69-6.31"/><path fill="#254f43" d="M489 250c.07.29.07.29.4 1.75.77 2.88 1.87 5.58 2.98 8.35.62 1.9.62 1.9.62 4.9h2l1 5c-3.29-1.13-4-1.99-5.75-5.12-.41-.95-.82-1.9-1.25-2.88-3.35.58-4.72 1.53-7 4-1.66 1.35-3.32 2.68-5 4l-2-1 6-6-1-2-7 1v-2c.82-.3 1.64-.61 2.48-.92l3.27-1.27c1.07-.4 2.13-.81 3.23-1.23 3.33-1.74 4.9-3.52 7.02-6.58"/><path fill="#30281c" d="M467 490c4.25 1.52 5.96 4.06 8 8 .32 2.76.19 5.2 0 8h2l1-9 3 1c-.11 4.74-.33 8.06-3.12 12-3.37 2.34-5.82 2.76-9.88 3 .25-.37.25-.37 1.5-2.25 2.5-4.87 1.73-10.44 1.5-15.75l-3-1c-.69-2.06-.69-2.06-1-4"/><path fill="#377a6f" d="M437 235c6.54-1.03 10.77 2.62 16 6 3.6 2.13 7.23 4.19 11 6-3.81 1.85-5.95 2.29-10 1-4.5-2.03-8.09-4.47-11.88-7.62-.96-.8-1.93-1.6-2.92-2.42-.73-.65-1.45-1.29-2.2-1.96z"/><path fill="#66583e" d="M485 193c2.49 1.2 4.68 2.45 7 4 3.55.94 6.86 1.12 10.52 1.1.51 0 .51 0 3.1-.01.52-.01.52-.01 3.19-.03.54 0 .54 0 3.26-.01 2.64-.01 5.29-.03 7.93-.05v2l4 1c-28.29 3.71-28.29 3.71-39-4z"/><path fill="#b1a28f" d="M81 190h13v2c-2.26 1.13-3.68 1.17-6.19 1.31-8.22.74-16.33 3.13-24.11 5.84-2.8.88-4.01.89-6.7-.15 2.37-3.56 3.82-3.66 7.85-4.53C67 194 67 194 70.56 192.88c3.61-.92 6.73-1.03 10.44-.88z"/><path fill="#948675" d="M271 191c.82.66.82.66 5 4-1.12.25-2.25.51-3.4.77-21.9 5.01-21.9 5.01-26.6 10.23-2.25.75-2.25.75-4 1v-3c.62-.27 1.24-.54 1.88-.81C246 202 246 202 248 199c2.43-1.13 2.43-1.13 5.31-2.12.95-.34 1.89-.67 2.87-1.01 2.82-.87 2.82-.87 5.44-1.39 2.25-.45 4.1-1.1 6.19-2.04 1.05-.48 2.11-.95 3.19-1.44"/><path fill="#6b6758" d="m518 145 1 2c1.25-.16 2.49-.33 3.78-.5 5.6-.62 11.15-.61 16.78-.56A1816 1816 0 0 1 550 146c.16.5.16.5 1 3h-36l-1-3z"/><path fill="#d5caa9" d="M450.75 134.875c.8.02 1.6.04 2.42.05.61.03 1.21.05 1.83.07l-2 4h-2c-.33 1.98-.66 3.97-1 6-.66-.99-1.32-1.97-2-3h-3v-3c-.99.34-1.98.66-3 1-1.19 3.07-1.19 3.07-2 6h-3c-.66 4.63-1.32 9.25-2 14h-1c-.32-8.93.43-14.58 6.37-21.48 3.27-3.04 5.97-3.77 10.38-3.64"/><path fill="#807462" d="M471 377c1.75.06 1.75.06 4 1 3.29 4.7 4.54 8.32 5 14h2c.96 4.04 1.17 7.85 1.19 12 .01 1.2.03 2.39.04 3.62-.22 3.26-.83 5.46-2.23 8.38h-2c.1-.91.19-1.81.29-2.75 1.18-13.01-.87-25.11-8.29-36.25"/><path fill="#d7985d" d="M499 111c3.84 1.8 3.84 1.8 5.25 3.62 1.14 3.61.99 6.6.75 10.38-.33.5-.33.5-2 3-.41 2.04-.41 2.04-.62 4.19-.13 1.26-.25 2.51-.38 3.81l-2-1c.01-.64.02-1.28.04-1.93 0-.83.01-1.66.02-2.51.01-.41.01-.41.04-2.49C500 126 500 126 499 125c-.07-2.35-.08-4.71-.06-7.06.01-1.29.02-2.58.02-3.91.02-1 .03-2 .04-3.03"/><path fill="#36716b" d="M493 250c4.29 1.65 6.88 4.74 10 8l-1 2-3-2v2l-5 1-1 4c-3.69-7.85-3.69-7.85-3-12 1.5-1.81 1.5-1.81 3-3"/><path fill="#5c4b33" d="M69 198c3.56.12 3.56.12 7 0l1-1c1.52-.07 3.04-.08 4.56-.06.83.01 1.66.02 2.51.02.63.02 1.27.03 1.93.04-3.44 2.29-5.37 2.4-9.44 2.81-6.15.8-11.22 2.38-16.84 4.97-2.86 1.28-5.74 2.27-8.72 3.22 2.88-6.2 7.12-7.74 13.32-10.21C67 197 67 197 69 198"/><path fill="#7d5a30" d="M330 195c3.66.69 6.52 2.25 9.75 4.06.98.55 1.97 1.1 2.98 1.66.75.42 1.5.85 2.27 1.28l-1 4h-2l-1 4-3-1v-3h-2c-.81-1.46-1.63-2.92-2.44-4.38-.45-.81-.9-1.62-1.37-2.46-.76-1.37-1.49-2.76-2.19-4.16"/><path fill="#e8c48f" d="M363 172c-2.23 2.23-3.66 2.69-6.62 3.62-.82.27-1.64.53-2.48.79-.63.2-1.25.39-1.9.59l2 1c-.19.58-.37 1.16-.56 1.75C353 182 353 182 354 186l-13 2 1-2h6v-3h-3c1.81-4.45 4.68-7.82 9-10.02 5.41-2.18 5.41-2.18 9-.98"/><path fill="#dac08b" d="M449.629 339.875c.78.04 1.56.08 2.37.12-.95 1.47-1.91 2.92-2.87 4.38-.54.81-1.07 1.62-1.62 2.46-1.51 2.16-1.51 2.16-3.51 4.16-5.05-.14-8.94-3.27-13-6 2.73-1.36 4.97-1.06 8-1h4c.64-.66 1.28-1.31 1.94-2 2.06-2 2.06-2 4.69-2.12"/><path fill="#b1a792" d="M510 119c2 1 2 1 3.06 3.13 1.07 3.26 1.56 6.35 2 9.75.16 1.17.31 2.34.48 3.55.15 1.18.3 2.36.46 3.57.33 2.33.66 4.67 1 7h-3c-.48-2.14-.95-4.29-1.43-6.43q-.54-2.445-1.11-4.89c-1.13-4.88-2.01-9.68-2.46-14.68z"/><path fill="#dfdacc" d="m269 436 2 1-1 3h-2c-.04.58-.08 1.15-.12 1.75-1.34 3.44-3.74 4.49-6.88 6.25h-3v-2l-7 2c1.64-1.9 2.81-2.93 5.19-3.81 3.46-1.47 6.09-3.54 9.04-5.85C267 437 267 437 269 436"/><path fill="#85786e" d="M513 277c4.23 7.67 3.1 15.17.89 23.34-.79 2.36-1.7 4.47-2.89 6.66h-6v-3l5-1c2.13-8.6 2.58-17.18 3-26"/><path fill="#a19780" d="M190 391v5h-2c-.24.57-.49 1.14-.74 1.73-1.47 2.65-3.21 4.42-5.38 6.52l-2.2 2.14c-.55.53-1.11 1.06-1.68 1.61l-3-1c1-3 1-3 4-5l2-3 3 1-1-6c4.75-3 4.75-3 7-3"/><path fill="#7e776a" d="m409 53 2 1c-.74 4.08-1.83 8.02-3 12-1.88-.31-1.88-.31-4-1l-2-3-3-1c-4.67-4.33-4.67-4.33-6-7 2.19-.31 2.19-.31 5 0 1.71 1.63 3.38 3.29 5 5h3z"/><path fill="#cebf99" d="M321 34h1v16h2v-9h2c.03 1.79.05 3.58.06 5.38.01.99.03 1.99.04 3.02C326 52 326 52 325 54h-2v12h-1c-.79-4.15-1.12-8.05-1.1-12.27.01-1.16.01-2.31.01-3.5l.03-3.61c0-1.21.01-2.42.01-3.67.01-2.98.03-5.97.05-8.95"/><path fill="#6d6252" d="M320.5 10.625c.96-.01 1.92-.02 2.91-.02 2.92.45 3.8 1.11 5.59 3.4-.9.04-1.81.09-2.74.14-1.18.08-2.36.15-3.57.23-.59.03-.59.03-3.55.21-3.14.42-3.14.42-6.14 2.42-1.19 3.62-1.19 3.62-2 7h-3c.33-1.99.66-3.97 1-6h2c.1-.6.21-1.2.31-1.82 1.56-4.94 4.28-5.6 9.19-5.56"/><path fill="#7b5d43" d="M194 262c3.44 4.22 5 7.5 5 13h2l-1-8c4.11 3.31 4.42 5.88 5 11l2 1-4 1v-2h-2l-1 2c-.82-2.06-1.63-4.12-2.44-6.19-.22-.57-.22-.57-1.37-3.48-1-2.8-1.71-5.4-2.19-8.33"/></svg>
